<?xml version="1.0" encoding="UTF-8"?>
<svg width="20px" height="14px" viewBox="0 0 20 14" version="1.1" xmlns="http://www.w3.org/2000/svg" xmlns:xlink="http://www.w3.org/1999/xlink">
    <!-- Generator: Sketch 47.1 (45422) - http://www.bohemiancoding.com/sketch -->
    <title>Fill 1</title>
    <desc>Created with Sketch.</desc>
    <defs></defs>
    <g id="Page-1" stroke="none" stroke-width="1" fill="none" fill-rule="evenodd">
        <g id="Desktop-1440-+_Main" transform="translate(-1126.000000, -5753.000000)" fill="#FFFFFF">
            <g id="Footer" transform="translate(0.000000, 5681.000000)">
                <g id="youtube" transform="translate(1126.000000, 72.000000)">
                    <path d="M19.2203226,1.23584 C18.498629,0.38456 17.1657258,0.03736 14.6200806,0.03736 L5.37959677,0.03736 C2.77596774,0.03736 1.42040323,0.40704 0.701209677,1.31328 C0,2.19704 0,3.49928 0,5.30144 L0,8.73616 C0,12.22736 0.831935484,13.99984 5.37959677,13.99984 L14.6200806,13.99984 C16.8277419,13.99984 18.0509677,13.6936 18.8423387,12.9424 C19.6537903,12.17176 20,10.91392 20,8.73616 L20,5.30144 C20,3.4008 19.9458065,2.09112 19.2203226,1.23584 Z M12.8402419,7.49304 L8.64419355,9.66832 C8.55024194,9.71704 8.44758065,9.74112 8.34516129,9.74112 C8.22927419,9.74112 8.11330645,9.71016 8.01096774,9.64864 C7.81782258,9.53272 7.7,9.32488 7.7,9.10112 L7.7,4.76424 C7.7,4.5408 7.81758065,4.33328 8.01032258,4.21736 C8.20314516,4.10112 8.44258065,4.09328 8.64258065,4.1964 L12.838629,6.35768 C13.0519355,6.46768 13.186129,6.68616 13.1864516,6.92488 C13.1867742,7.1636 13.0531452,7.3824 12.8402419,7.49304 Z" id="Fill-1"></path>
                </g>
            </g>
        </g>
    </g>
</svg>