<?xml version="1.0" encoding="UTF-8"?>
<svg width="20px" height="20px" viewBox="0 0 20 20" version="1.1" xmlns="http://www.w3.org/2000/svg" xmlns:xlink="http://www.w3.org/1999/xlink">
    <!-- Generator: Sketch 47.1 (45422) - http://www.bohemiancoding.com/sketch -->
    <title>instagram copy</title>
    <desc>Created with Sketch.</desc>
    <defs></defs>
    <g id="Page-1" stroke="none" stroke-width="1" fill="none" fill-rule="evenodd">
        <g id="Desktop-1440-+_Main" transform="translate(-1184.000000, -5750.000000)" fill="#FFFFFF">
            <g id="Footer" transform="translate(0.000000, 5681.000000)">
                <g id="instagram" transform="translate(1184.000000, 69.000000)">
                    <g>
                        <path d="M5.40394531,1.61582031 C3.31515625,1.61582031 1.61582031,3.31515625 1.61582031,5.40394531 L1.61582031,14.5960547 C1.61582031,16.6848438 3.31515625,18.3842188 5.40394531,18.3842188 L14.5960547,18.3842188 C16.6848438,18.3842188 18.3842188,16.6848438 18.3842188,14.5960547 L18.3842188,5.40394531 C18.3842188,3.31515625 16.6848438,1.61582031 14.5960547,1.61582031 L5.40394531,1.61582031 Z M14.5960547,20 L5.40394531,20 C2.42421875,20 0,17.5757812 0,14.5960547 L0,5.40394531 C0,2.42421875 2.42421875,0 5.40394531,0 L14.5960547,0 C17.5757812,0 20,2.42421875 20,5.40394531 L20,14.5960547 C20,17.5757812 17.5757812,20 14.5960547,20 L14.5960547,20 Z" id="Fill-1"></path>
                        <path d="M10.0397656,7.09128906 C9.89914062,7.09128906 9.75855469,7.10160156 9.61894531,7.12234375 C8.86089844,7.23476562 8.19203125,7.635625 7.73546875,8.25113281 C7.27890625,8.86664062 7.08945312,9.62304688 7.201875,10.3810937 C7.31425781,11.1391016 7.71511719,11.8080078 8.330625,12.2645313 C8.94613281,12.7210937 9.70253906,12.9107031 10.4605859,12.798125 C12.0254297,12.5660938 13.1096875,11.1042188 12.8776562,9.53941406 C12.6909375,8.28039062 11.7196094,7.3090625 10.4605859,7.12238281 C10.3209766,7.10160156 10.1803516,7.09128906 10.0397656,7.09128906 Z M10.0302734,14.4458594 C9.0753125,14.4458594 8.14910156,14.1416016 7.36804687,13.5623047 C6.40589844,12.8486719 5.77925781,11.8030469 5.60351562,10.6180859 C5.42777344,9.433125 5.7240625,8.25066406 6.43769531,7.28851563 C7.15132812,6.32636719 8.19695312,5.69972656 9.38195312,5.52398438 C9.8184375,5.45925781 10.2610937,5.45925781 10.6976172,5.52398438 C11.6564453,5.66613281 12.5255469,6.10363281 13.2109375,6.78902344 C13.8963672,7.47445313 14.3338281,8.34351563 14.4760156,9.30238281 C14.6517578,10.4873438 14.3554687,11.6698047 13.6418359,12.6319141 C12.9282031,13.5940625 11.8825781,14.2207031 10.6975781,14.3964453 C10.4746094,14.4295313 10.2516406,14.4458594 10.0302734,14.4458594 L10.0302734,14.4458594 Z" id="Fill-4"></path>
                        <path d="M15.0556641,5.75222656 C14.8430859,5.75222656 14.6348437,5.66605469 14.484375,5.515625 C14.3339844,5.36515625 14.2477734,5.15726563 14.2477734,4.94433594 C14.2477734,4.73140625 14.3339453,4.52351562 14.484375,4.37308594 C14.6348437,4.22261719 14.8430859,4.13644531 15.0556641,4.13644531 C15.2682422,4.13644531 15.4764844,4.22261719 15.6269141,4.37308594 C15.7773438,4.52351562 15.8635547,4.73175781 15.8635547,4.94433594 C15.8635547,5.15691406 15.7773828,5.36515625 15.6269141,5.515625 C15.4764844,5.66605469 15.2682422,5.75222656 15.0556641,5.75222656" id="Fill-5"></path>
                    </g>
                </g>
            </g>
        </g>
    </g>
</svg>