<?xml version="1.0" encoding="UTF-8"?>
<svg width="10px" height="19px" viewBox="0 0 10 19" version="1.1" xmlns="http://www.w3.org/2000/svg" xmlns:xlink="http://www.w3.org/1999/xlink">
    <!-- Generator: Sketch 47.1 (45422) - http://www.bohemiancoding.com/sketch -->
    <title>facebook-logo</title>
    <desc>Created with Sketch.</desc>
    <defs></defs>
    <g id="Page-1" stroke="none" stroke-width="1" fill="none" fill-rule="evenodd">
        <g id="Desktop-1440-+_Main" transform="translate(-1247.000000, -5751.000000)" fill="#FFFFFF">
            <g id="Footer" transform="translate(0.000000, 5681.000000)">
                <path d="M1256.62428,70.0037062 L1254.22543,70 C1251.53072,70 1249.78876,71.8355614 1249.78876,74.6759994 L1249.78876,76.8322713 L1247.37668,76.8322713 C1247.1691,76.8322713 1247,77.0049806 1247,77.2191995 L1247,80.343533 C1247,80.5567635 1247.1691,80.7304611 1247.37668,80.7304611 L1249.78876,80.7304611 L1249.78876,88.6130719 C1249.78876,88.8263024 1249.95786,89 1250.1664,89 L1253.31212,89 C1253.52066,89 1253.68976,88.8263024 1253.68976,88.6130719 L1253.68976,80.7304611 L1256.50955,80.7304611 C1256.71809,80.7304611 1256.88647,80.5567635 1256.88647,80.343533 L1256.88815,77.2191995 C1256.88815,77.1169081 1256.84774,77.0185701 1256.77726,76.9451871 C1256.70679,76.8727925 1256.61105,76.8322713 1256.51051,76.8322713 L1253.68976,76.8322713 L1253.68976,75.0043694 C1253.68976,74.1259981 1253.89373,73.6800177 1255.00717,73.6800177 L1256.62332,73.6790294 C1256.83187,73.6790294 1257,73.5053317 1257,73.2921012 L1257,70.3918697 C1257,70.1774038 1256.83187,70.0046945 1256.62428,70.0037062 Z" id="facebook-logo"></path>
            </g>
        </g>
    </g>
</svg>