<?xml version="1.0" encoding="UTF-8"?>
<svg width="20px" height="16px" viewBox="0 0 20 16" version="1.1" xmlns="http://www.w3.org/2000/svg" xmlns:xlink="http://www.w3.org/1999/xlink">
    <!-- Generator: Sketch 47.1 (45422) - http://www.bohemiancoding.com/sketch -->
    <title>twitter-logo-silhouette</title>
    <desc>Created with Sketch.</desc>
    <defs></defs>
    <g id="Page-1" stroke="none" stroke-width="1" fill="none" fill-rule="evenodd">
        <g id="Desktop-1440-+_Main" transform="translate(-1300.000000, -5752.000000)" fill="#FFFFFF">
            <g id="Footer" transform="translate(0.000000, 5681.000000)">
                <path d="M1320,72.8926717 C1319.26724,73.2127332 1318.47356,73.4343143 1317.64393,73.531256 C1318.49231,73.0311598 1319.13913,72.2386997 1319.45004,71.2939027 C1318.65635,71.7570687 1317.7783,72.0940565 1316.83775,72.2740912 C1316.09406,71.4924024 1315.02539,71 1313.84736,71 C1311.58347,71 1309.74611,72.8095788 1309.74611,75.0392383 C1309.74611,75.3577611 1309.78361,75.6639738 1309.85079,75.9594153 C1306.43856,75.790152 1303.41848,74.1852279 1301.39208,71.7386036 C1301.03742,72.3341027 1300.83587,73.0311598 1300.83587,73.7713022 C1300.83587,75.1715715 1301.56238,76.4102712 1302.66073,77.1304097 C1301.98891,77.1134834 1301.36083,76.9272937 1300.80619,76.6256972 L1300.80619,76.6749375 C1300.80619,78.6337757 1302.2217,80.2679361 1304.09499,80.6418542 C1303.75283,80.7311021 1303.38724,80.7788036 1303.01539,80.7788036 C1302.75291,80.7788036 1302.49668,80.7557223 1302.24045,80.7080208 C1302.76541,82.3129448 1304.27779,83.4777842 1306.07296,83.5147144 C1304.66839,84.5964609 1302.89821,85.2396615 1300.97649,85.2396615 C1300.64682,85.2396615 1300.32341,85.2211964 1300,85.185805 C1301.81861,86.333718 1303.97313,87 1306.2917,87 C1313.83486,87 1317.9611,80.8449702 1317.9611,75.5085593 L1317.9486,74.9853818 C1318.75478,74.4145028 1319.45004,73.7051356 1320,72.8926717 Z" id="twitter-logo-silhouette"></path>
            </g>
        </g>
    </g>
</svg>