<?xml version="1.0" encoding="UTF-8"?>
<svg width="16px" height="16px" viewBox="0 0 16 16" version="1.1" xmlns="http://www.w3.org/2000/svg" xmlns:xlink="http://www.w3.org/1999/xlink">
    <!-- Generator: Sketch 47.1 (45422) - http://www.bohemiancoding.com/sketch -->
    <title>facebook</title>
    <desc>Created with Sketch.</desc>
    <defs>
        <polygon id="path-1" points="0 0.00829339853 15.9915892 0.00829339853 15.9915892 15.9976528 0 15.9976528"></polygon>
    </defs>
    <g id="Page-1" stroke="none" stroke-width="1" fill="none" fill-rule="evenodd">
        <g id="Desktop-1440-+_Main" transform="translate(-252.000000, -2342.000000)">
            <g id="Powerful" transform="translate(0.000000, 1800.000000)">
                <g id="facebook-review" transform="translate(120.000000, 482.000000)">
                    <g id="facebook" transform="translate(132.000000, 60.000000)">
                        <g>
                            <mask id="mask-2" fill="white">
                                <use xlink:href="#path-1"></use>
                            </mask>
                            <g id="Clip-2"></g>
                            <path d="M13.8366357,0.00829339853 L2.15491443,0.00829339853 C0.964811736,0.00829339853 0,0.973066015 0,2.16320782 L0,13.8450073 C0,15.0351491 0.964772616,15.9999218 2.15491443,15.9999218 L7.91628362,15.9999218 L7.92610269,10.285379 L6.44146699,10.285379 C6.24852812,10.285379 6.09193154,10.1293692 6.09118826,9.93643032 L6.08406846,8.09439609 C6.08332518,7.90040098 6.2403912,7.74274817 6.43438631,7.74274817 L7.91632274,7.74274817 L7.91632274,5.96287531 C7.91632274,3.89734963 9.17781907,2.77265526 11.020401,2.77265526 L12.5323814,2.77265526 C12.7258289,2.77265526 12.8826993,2.92948655 12.8826993,3.12297311 L12.8826993,4.67618582 C12.8826993,4.86959413 12.7259462,5.02638631 12.532577,5.02650367 L11.6046944,5.02693399 C10.6026406,5.02693399 10.4086064,5.50310024 10.4086064,6.20189731 L10.4086064,7.74278729 L12.6104645,7.74278729 C12.8202641,7.74278729 12.9830416,7.92598533 12.9583178,8.13433741 L12.7399902,9.97637164 C12.7191002,10.1526455 12.5696235,10.2854572 12.3921369,10.2854572 L10.4184254,10.2854572 L10.4086064,16 L13.8367139,16 C15.0268166,16 15.9915892,15.0352274 15.9915892,13.8451247 L15.9915892,2.16320782 C15.9915501,0.973066015 15.0267775,0.00829339853 13.8366357,0.00829339853" id="Fill-1" fill="#0158CA" mask="url(#mask-2)"></path>
                        </g>
                    </g>
                </g>
            </g>
        </g>
    </g>
</svg>