<?xml version="1.0" encoding="UTF-8"?>
<svg width="384px" height="76px" viewBox="0 0 384 76" version="1.1" xmlns="http://www.w3.org/2000/svg" xmlns:xlink="http://www.w3.org/1999/xlink">
    <!-- Generator: Sketch 47.1 (45422) - http://www.bohemiancoding.com/sketch -->
    <title>logo</title>
    <desc>Created with Sketch.</desc>
    <defs></defs>
    <g id="Page-1" stroke="none" stroke-width="1" fill="none" fill-rule="evenodd">
        <g id="Desktop-1440-+_Log-In" transform="translate(-528.000000, -90.000000)">
            <g id="logo" transform="translate(528.000000, 90.000000)">
                <g id="MerchLab-logo-white">
                    <g>
                        <g id="Group">
                            <g>
                                <path d="M27.9715736,46.9766497 C27.484264,46.9766497 27.0944162,47.3664975 27.0944162,47.8538071 L27.0944162,51.6548223 C27.0944162,52.142132 27.484264,52.5319797 27.9715736,52.5319797 C28.4588832,52.5319797 28.848731,52.142132 28.848731,51.6548223 L28.848731,47.8538071 C28.751269,47.3664975 28.3614213,46.9766497 27.9715736,46.9766497 Z" id="Shape" fill="#FFFFFF" fill-rule="nonzero"></path>
                                <path d="M39.1796954,65.2020305 C38.6923858,65.2020305 38.3025381,65.5918782 38.3025381,66.0791878 L38.3025381,67.248731 C38.3025381,67.7360406 38.6923858,68.1258883 39.1796954,68.1258883 C39.6670051,68.1258883 40.0568528,67.7360406 40.0568528,67.248731 L40.0568528,66.0791878 C40.0568528,65.5918782 39.6670051,65.2020305 39.1796954,65.2020305 Z" id="Shape" fill="#FFFFFF" fill-rule="nonzero"></path>
                                <path d="M27.9715736,65.2020305 C27.484264,65.2020305 27.0944162,65.5918782 27.0944162,66.0791878 L27.0944162,67.248731 C27.0944162,67.7360406 27.484264,68.1258883 27.9715736,68.1258883 C28.4588832,68.1258883 28.848731,67.7360406 28.848731,67.248731 L28.848731,66.0791878 C28.751269,65.5918782 28.3614213,65.2020305 27.9715736,65.2020305 Z" id="Shape" fill="#FFFFFF" fill-rule="nonzero"></path>
                                <path d="M27.9715736,53.7989848 C27.484264,53.7989848 27.0944162,54.1888325 27.0944162,54.6761421 L27.0944162,55.8456853 C27.0944162,56.3329949 27.484264,56.7228426 27.9715736,56.7228426 C28.4588832,56.7228426 28.848731,56.3329949 28.848731,55.8456853 L28.848731,54.6761421 C28.751269,54.1888325 28.3614213,53.7989848 27.9715736,53.7989848 Z" id="Shape" fill="#FFFFFF" fill-rule="nonzero"></path>
                                <path d="M27.9715736,58.3796954 C27.484264,58.3796954 27.0944162,58.7695431 27.0944162,59.2568528 L27.0944162,63.057868 C27.0944162,63.5451777 27.484264,63.9350254 27.9715736,63.9350254 C28.4588832,63.9350254 28.848731,63.5451777 28.848731,63.057868 L28.848731,59.2568528 C28.751269,58.7695431 28.3614213,58.3796954 27.9715736,58.3796954 Z" id="Shape" fill="#FFFFFF" fill-rule="nonzero"></path>
                                <path d="M39.1796954,55.8456853 C38.6923858,55.8456853 38.3025381,56.235533 38.3025381,56.7228426 L38.3025381,62.4730964 C38.3025381,62.9604061 38.6923858,63.3502538 39.1796954,63.3502538 C39.6670051,63.3502538 40.0568528,62.9604061 40.0568528,62.4730964 L40.0568528,56.7228426 C40.0568528,56.235533 39.6670051,55.8456853 39.1796954,55.8456853 Z" id="Shape" fill="#FFFFFF" fill-rule="nonzero"></path>
                                <path d="M54.0913706,66.0791878 C54.0913706,65.5918782 53.7015228,65.2020305 53.2142132,65.2020305 C52.7269036,65.2020305 52.3370558,65.5918782 52.3370558,66.0791878 L52.3370558,67.248731 C52.3370558,67.7360406 52.7269036,68.1258883 53.2142132,68.1258883 C53.7015228,68.1258883 54.0913706,67.7360406 54.0913706,67.248731 L54.0913706,66.0791878 Z" id="Shape" fill="#FFFFFF" fill-rule="nonzero"></path>
                                <path d="M54.0913706,43.6629442 C54.0913706,43.1756345 53.7015228,42.7857868 53.2142132,42.7857868 C52.7269036,42.7857868 52.3370558,43.1756345 52.3370558,43.6629442 L52.3370558,46.2944162 C52.3370558,46.7817259 52.7269036,47.1715736 53.2142132,47.1715736 C53.7015228,47.1715736 54.0913706,46.7817259 54.0913706,46.2944162 L54.0913706,43.6629442 Z" id="Shape" fill="#FFFFFF" fill-rule="nonzero"></path>
                                <path d="M53.2142132,58.3796954 C52.7269036,58.3796954 52.3370558,58.7695431 52.3370558,59.2568528 L52.3370558,63.057868 C52.3370558,63.5451777 52.7269036,63.9350254 53.2142132,63.9350254 C53.7015228,63.9350254 54.0913706,63.5451777 54.0913706,63.057868 L54.0913706,59.2568528 C54.0913706,58.7695431 53.7015228,58.3796954 53.2142132,58.3796954 Z" id="Shape" fill="#FFFFFF" fill-rule="nonzero"></path>
                                <path d="M54.0913706,54.6761421 C54.0913706,54.1888325 53.7015228,53.7989848 53.2142132,53.7989848 C52.7269036,53.7989848 52.3370558,54.1888325 52.3370558,54.6761421 L52.3370558,55.8456853 C52.3370558,56.3329949 52.7269036,56.7228426 53.2142132,56.7228426 C53.7015228,56.7228426 54.0913706,56.3329949 54.0913706,55.8456853 L54.0913706,54.6761421 Z" id="Shape" fill="#FFFFFF" fill-rule="nonzero"></path>
                                <path d="M54.0913706,49.315736 C54.0913706,48.8284264 53.7015228,48.4385787 53.2142132,48.4385787 C52.7269036,48.4385787 52.3370558,48.8284264 52.3370558,49.315736 L52.3370558,51.6548223 C52.3370558,52.142132 52.7269036,52.5319797 53.2142132,52.5319797 C53.7015228,52.5319797 54.0913706,52.142132 54.0913706,51.6548223 L54.0913706,49.315736 Z" id="Shape" fill="#FFFFFF" fill-rule="nonzero"></path>
                                <g>
                                    <path d="M11.8903553,54.7736041 C11.8903553,54.0913706 11.4030457,53.6040609 10.8182741,53.506599 C10.7208122,53.506599 10.6233503,53.506599 10.5258883,53.506599 C10.4284264,53.506599 10.3309645,53.506599 10.2335025,53.506599 C9.64873096,53.6040609 9.16142132,54.1888325 9.16142132,54.7736041 C9.16142132,55.0659898 9.25888325,55.3583756 9.45380711,55.5532995 C9.64873096,55.8456853 10.0385787,56.0406091 10.5258883,56.0406091 C10.915736,56.0406091 11.2081218,55.8456853 11.5005076,55.6507614 C11.5005076,55.6507614 11.5005076,55.6507614 11.5979695,55.5532995 C11.6954315,55.4558376 11.7928934,55.3583756 11.7928934,55.1634518 C11.7928934,55.0659898 11.8903553,54.9685279 11.8903553,54.7736041 Z" id="Shape"></path>
                                    <ellipse id="Oval" cx="27.9715736" cy="37.5228426" rx="1.26700508" ry="1.36446701"></ellipse>
                                    <circle id="Oval" cx="53.2142132" cy="34.0142132" r="1.36446701"></circle>
                                    <ellipse id="Oval" cx="38.7898477" cy="48.4385787" rx="1.26700508" ry="1.36446701"></ellipse>
                                    <path d="M5.55532995,31.577665 C5.55532995,31.6751269 5.55532995,31.6751269 5.65279188,31.7725888 L14.8142132,35.4761421 L14.8142132,31.2852792 L11.6954315,20.0771574 L5.55532995,31.577665 Z" id="Shape"></path>
                                    <path d="M72.9015228,31.577665 L66.7614213,20.0771574 L63.6426396,31.1878173 L63.6426396,35.3786802 L72.9015228,31.6751269 C72.9015228,31.6751269 72.9015228,31.6751269 72.9015228,31.577665 Z" id="Shape"></path>
                                    <path d="M38.5949239,15.7888325 L39.3746193,15.7888325 C39.4720812,15.7888325 39.6670051,15.6913706 39.6670051,15.4964467 L39.6670051,14.2294416 C39.1796954,14.2294416 38.7898477,14.2294416 38.4,14.2294416 L38.4,15.4964467 C38.3025381,15.6913706 38.4974619,15.7888325 38.5949239,15.7888325 Z" id="Shape"></path>
                                    <path d="M40.8365482,15.4964467 C40.8365482,16.2761421 40.1543147,16.9583756 39.4720812,16.9583756 L38.6923858,16.9583756 C37.9126904,16.9583756 37.2304569,16.2761421 37.2304569,15.4964467 L37.2304569,14.1319797 C34.4040609,14.0345178 32.3573604,13.6446701 30.9928934,13.3522843 C31.577665,17.4456853 34.9888325,20.564467 39.2771574,20.564467 C43.5654822,20.564467 46.9766497,17.3482234 47.5614213,13.2548223 C45.1248731,13.742132 42.8832487,14.0345178 40.8365482,14.1319797 L40.8365482,15.4964467 L40.8365482,15.4964467 Z" id="Shape"></path>
                                    <path d="M39.2771574,0.682233503 C17.835533,0.682233503 0.487309645,18.0304569 0.487309645,39.4720812 C0.487309645,52.8243655 7.30964467,64.6172589 17.5431472,71.6345178 L17.5431472,49.9979695 L14.2294416,53.2142132 C14.4243655,53.7015228 14.5218274,54.1888325 14.5218274,54.6761421 C14.5218274,56.9177665 12.6700508,58.7695431 10.4284264,58.7695431 C8.18680203,58.7695431 6.33502538,56.9177665 6.33502538,54.6761421 C6.33502538,52.4345178 8.18680203,50.5827411 10.4284264,50.5827411 C10.915736,50.5827411 11.4030457,50.680203 11.8903553,50.8751269 L17.5431472,45.319797 L17.5431472,31.0903553 L13.5472081,16.7634518 C13.6446701,16.2761421 14.0345178,15.9837563 14.7167513,15.8862944 L24.2680203,14.1319797 C24.8527919,21.8314721 31.2852792,27.8741117 39.1796954,27.8741117 C42.2010152,27.8741117 45.1248731,26.9969543 47.6588832,25.2426396 C48.2436548,24.8527919 48.4385787,23.9756345 48.048731,23.293401 C47.6588832,22.7086294 46.7817259,22.5137056 46.0994924,22.9035533 C44.0527919,24.2680203 41.7137056,25.0477157 39.1796954,25.0477157 C32.6497462,25.0477157 27.386802,19.9796954 26.9969543,13.5472081 L29.1411168,13.1573604 C29.6284264,18.2253807 33.9167513,22.2213198 39.1796954,22.2213198 C44.4426396,22.2213198 48.6335025,18.2253807 49.2182741,13.1573604 L51.3624365,13.5472081 C51.2649746,15.8862944 50.4852792,18.1279188 49.1208122,20.0771574 C48.6335025,20.6619289 48.8284264,21.5390863 49.413198,22.0263959 C49.7055838,22.2213198 49.9005076,22.3187817 50.1928934,22.3187817 C50.5827411,22.3187817 51.0700508,22.1238579 51.2649746,21.7340102 C52.9218274,19.4923858 53.7989848,16.8609137 54.0913706,14.1319797 L63.9350254,15.9837563 C64.422335,15.9837563 64.8121827,16.3736041 64.9096447,16.7634518 L60.9137056,30.7005076 L60.8162437,71.6345178 C71.2446701,64.6172589 77.9695431,52.8243655 77.9695431,39.3746193 C77.9695431,18.0304569 60.6213198,0.682233503 39.2771574,0.682233503 Z M14.8142132,31.2852792 L14.8142132,35.4761421 L5.65279188,31.7725888 C5.55532995,31.7725888 5.55532995,31.6751269 5.55532995,31.577665 L11.6954315,20.0771574 L14.8142132,31.2852792 Z M38.3025381,14.2294416 C38.6923858,14.2294416 39.1796954,14.2294416 39.5695431,14.2294416 L39.5695431,15.4964467 C39.5695431,15.5939086 39.4720812,15.7888325 39.2771574,15.7888325 L38.4974619,15.7888325 C38.4,15.7888325 38.2050761,15.6913706 38.2050761,15.4964467 L38.2050761,14.2294416 L38.3025381,14.2294416 Z M39.1796954,20.564467 C34.9888325,20.564467 31.480203,17.4456853 30.8954315,13.3522843 C32.1624365,13.6446701 34.306599,14.0345178 37.1329949,14.1319797 L37.1329949,15.4964467 C37.1329949,16.2761421 37.8152284,16.9583756 38.5949239,16.9583756 L39.3746193,16.9583756 C40.1543147,16.9583756 40.7390863,16.2761421 40.7390863,15.4964467 L40.7390863,14.1319797 C42.7857868,14.0345178 45.0274112,13.742132 47.4639594,13.2548223 C46.9766497,17.3482234 43.4680203,20.564467 39.1796954,20.564467 Z M63.6426396,35.4761421 L63.6426396,31.2852792 L66.7614213,20.1746193 L72.9015228,31.6751269 C72.9015228,31.7725888 72.9015228,31.7725888 72.8040609,31.8700508 L63.6426396,35.4761421 Z" id="Shape" fill="#FFFFFF" fill-rule="nonzero"></path>
                                    <path d="M11.5005076,55.5532995 C11.5979695,55.4558376 11.6954315,55.3583756 11.6954315,55.1634518 C11.6954315,55.3583756 11.5979695,55.4558376 11.5005076,55.5532995 Z" id="Shape" fill="#FFFFFF" fill-rule="nonzero"></path>
                                    <path d="M9.45380711,55.5532995 C9.64873096,55.8456853 10.0385787,56.0406091 10.5258883,56.0406091 C10.915736,56.0406091 11.2081218,55.8456853 11.5005076,55.6507614 C11.3055838,55.8456853 10.915736,56.0406091 10.5258883,56.0406091 C10.1360406,56.0406091 9.74619289,55.8456853 9.45380711,55.5532995 Z" id="Shape" fill="#FFFFFF" fill-rule="nonzero"></path>
                                    <path d="M26.4121827,41.2263959 C26.8994924,41.4213198 27.386802,41.5187817 27.8741117,41.5187817 C28.3614213,41.5187817 28.848731,41.4213198 29.3360406,41.2263959 L34.9888325,46.8791878 C34.7939086,47.3664975 34.6964467,47.8538071 34.6964467,48.3411168 C34.6964467,50.5827411 36.5482234,52.4345178 38.7898477,52.4345178 C41.0314721,52.4345178 42.8832487,50.680203 42.8832487,48.4385787 C42.8832487,47.951269 42.7857868,47.4639594 42.5908629,46.9766497 L51.7522843,37.8152284 C52.2395939,38.0101523 52.7269036,38.1076142 53.2142132,38.1076142 C55.4558376,38.1076142 57.3076142,36.2558376 57.3076142,34.0142132 C57.3076142,31.7725888 55.4558376,29.9208122 53.2142132,29.9208122 C50.9725888,29.9208122 49.1208122,31.7725888 49.1208122,34.0142132 C49.1208122,34.5015228 49.2182741,34.9888325 49.413198,35.4761421 L40.2517766,44.6375635 C39.764467,44.4426396 39.2771574,44.3451777 38.7898477,44.3451777 C38.3025381,44.3451777 37.8152284,44.4426396 37.3279188,44.6375635 L31.6751269,38.9847716 C31.8700508,38.4974619 31.9675127,38.0101523 31.9675127,37.5228426 C31.9675127,35.2812183 30.115736,33.4294416 27.8741117,33.4294416 C25.6324873,33.4294416 23.7807107,35.2812183 23.7807107,37.5228426 C23.7807107,38.0101523 23.8781726,38.4974619 24.0730964,38.8873096 L17.5431472,45.4172589 L17.5431472,50.0954315 L26.4121827,41.2263959 Z M53.2142132,32.6497462 C53.8964467,32.6497462 54.5786802,33.2345178 54.5786802,33.9167513 C54.5786802,34.5989848 53.9939086,35.2812183 53.2142132,35.2812183 C52.5319797,35.2812183 51.9472081,34.6964467 51.9472081,33.9167513 C51.9472081,33.2345178 52.5319797,32.6497462 53.2142132,32.6497462 Z M38.7898477,47.0741117 C39.4720812,47.0741117 40.0568528,47.6588832 40.0568528,48.3411168 C40.0568528,49.0233503 39.4720812,49.7055838 38.7898477,49.7055838 C38.1076142,49.7055838 37.5228426,49.1208122 37.5228426,48.3411168 C37.5228426,47.6588832 38.1076142,47.0741117 38.7898477,47.0741117 Z M27.9715736,36.1583756 C28.6538071,36.1583756 29.2385787,36.7431472 29.2385787,37.5228426 C29.2385787,38.2050761 28.6538071,38.7898477 27.9715736,38.7898477 C27.2893401,38.7898477 26.7045685,38.2050761 26.7045685,37.5228426 C26.6071066,36.7431472 27.1918782,36.1583756 27.9715736,36.1583756 Z" id="Shape" fill="#FFFFFF" fill-rule="nonzero"></path>
                                    <path d="M10.2335025,53.4091371 C9.64873096,53.506599 9.16142132,54.0913706 9.16142132,54.6761421 C9.16142132,54.9685279 9.25888325,55.2609137 9.45380711,55.4558376 C9.25888325,55.2609137 9.16142132,54.9685279 9.16142132,54.6761421 C9.25888325,54.0913706 9.64873096,53.6040609 10.2335025,53.4091371 Z" id="Shape" fill="#FFFFFF" fill-rule="nonzero"></path>
                                    <path d="M11.5005076,55.5532995 C11.5005076,55.6507614 11.5005076,55.6507614 11.5005076,55.5532995 C11.5005076,55.6507614 11.5005076,55.6507614 11.5005076,55.5532995 Z" id="Shape" fill="#FFFFFF" fill-rule="nonzero"></path>
                                    <path d="M11.8903553,54.7736041 C11.8903553,54.9685279 11.8903553,55.1634518 11.7928934,55.2609137 C11.7928934,55.0659898 11.8903553,54.9685279 11.8903553,54.7736041 C11.8903553,54.0913706 11.4030457,53.6040609 10.8182741,53.506599 C11.4030457,53.6040609 11.8903553,54.0913706 11.8903553,54.7736041 Z" id="Shape" fill="#FFFFFF" fill-rule="nonzero"></path>
                                </g>
                                <g transform="translate(26.314721, 69.197970)" id="Shape" fill-rule="nonzero" fill="#FFFFFF">
                                    <path d="M12.8649746,0.779695431 C12.377665,0.779695431 11.9878173,1.16954315 11.9878173,1.65685279 L11.9878173,1.65685279 L11.9878173,1.65685279 L11.9878173,5.45786802 L11.9878173,5.45786802 L11.9878173,5.45786802 C11.9878173,5.94517766 12.377665,6.33502538 12.8649746,6.33502538 C13.3522843,6.33502538 13.742132,5.94517766 13.742132,5.45786802 L13.742132,5.45786802 L13.742132,5.45786802 L13.742132,1.65685279 L13.742132,1.65685279 L13.742132,1.65685279 C13.742132,1.07208122 13.3522843,0.779695431 12.8649746,0.779695431 Z"></path>
                                    <path d="M1.65685279,0.779695431 C1.16954315,0.779695431 0.779695431,1.16954315 0.779695431,1.65685279 L0.779695431,1.65685279 L0.779695431,1.65685279 L0.779695431,4.87309645 L0.779695431,4.87309645 L0.779695431,4.87309645 C0.779695431,5.36040609 1.16954315,5.75025381 1.65685279,5.75025381 C2.14416244,5.75025381 2.53401015,5.36040609 2.53401015,4.87309645 L2.53401015,4.87309645 L2.53401015,4.87309645 L2.53401015,1.65685279 L2.53401015,1.65685279 L2.53401015,1.65685279 C2.43654822,1.07208122 2.04670051,0.779695431 1.65685279,0.779695431 Z"></path>
                                    <path d="M27.7766497,1.55939086 C27.7766497,1.07208122 27.386802,0.682233503 26.8994924,0.682233503 C26.4121827,0.682233503 26.022335,1.07208122 26.022335,1.55939086 L26.022335,1.55939086 L26.022335,1.55939086 L26.022335,4.77563452 L26.022335,4.77563452 L26.022335,4.77563452 C26.022335,5.26294416 26.4121827,5.65279188 26.8994924,5.65279188 C27.386802,5.65279188 27.7766497,5.26294416 27.7766497,4.77563452 L27.7766497,4.77563452 L27.7766497,4.77563452 L27.7766497,1.55939086 L27.7766497,1.55939086 L27.7766497,1.55939086 Z"></path>
                                </g>
                            </g>
                            <g transform="translate(95.512690, 22.416244)" fill-rule="nonzero" fill="#FFFFFF">
                                <path d="M37.2304569,0.487309645 C34.7939086,0.487309645 33.1370558,1.46192893 32.1624365,3.41116751 L21.2467005,25.4375635 L10.5258883,3.50862944 C9.55126904,1.55939086 7.89441624,0.584771574 5.36040609,0.584771574 C3.7035533,0.584771574 2.43654822,0.974619289 1.46192893,1.75431472 C0.487309645,2.53401015 0.0974619289,3.50862944 0.0974619289,4.67817259 L0.0974619289,31.6751269 L5.94517766,31.6751269 L5.94517766,7.30964467 L17.0558376,29.2385787 C17.5431472,30.213198 18.0304569,30.8954315 18.4203046,31.2852792 C19.1025381,31.8700508 20.0771574,32.2598985 21.2467005,32.2598985 C23.0984772,32.2598985 24.657868,31.1878173 25.6324873,29.0436548 L36.5482234,7.30964467 L36.5482234,31.6751269 L42.3959391,31.6751269 L42.3959391,4.77563452 C42.3959391,3.50862944 41.9086294,2.53401015 41.0314721,1.75431472 C40.2517766,0.87715736 38.8873096,0.487309645 37.2304569,0.487309645 Z" id="Shape"></path>
                                <path d="M65.5918782,8.18680203 L56.0406091,8.18680203 C50.1928934,8.18680203 47.3664975,10.1360406 47.3664975,14.1319797 L47.3664975,25.1451777 C47.3664975,27.484264 48.2436548,29.1411168 49.9979695,30.115736 C51.3624365,30.9928934 53.6040609,31.480203 56.5279188,31.480203 L73.6812183,31.480203 L73.6812183,27.484264 L57.5025381,27.484264 C55.9431472,27.484264 54.871066,27.2893401 54.1888325,26.9969543 C53.2142132,26.4121827 52.8243655,25.5350254 52.8243655,24.3654822 L52.8243655,23.5857868 L52.7269036,19.6873096 L52.7269036,19.4923858 L68.1258883,19.4923858 L68.7106599,19.4923858 L73.6812183,19.4923858 L73.6812183,14.5218274 C73.6812183,10.2335025 71.0497462,8.18680203 65.5918782,8.18680203 Z M52.7269036,15.8862944 L52.7269036,15.106599 C52.7269036,13.0598985 54.3837563,12.0852792 57.6974619,12.0852792 L63.7401015,12.0852792 C66.6639594,12.0852792 68.0284264,12.9624365 68.0284264,14.7167513 L68.0284264,15.0091371 L68.0284264,15.7888325 L52.7269036,15.7888325 L52.7269036,15.8862944 Z" id="Shape"></path>
                                <path d="M76.0203046,14.1319797 L76.0203046,31.2852792 L81.6730964,31.2852792 L81.6730964,15.2040609 C81.6730964,13.5472081 82.3553299,12.4751269 83.8172589,12.0852792 C84.4994924,11.8903553 86.9360406,11.7928934 91.1269036,11.7928934 L91.1269036,7.79695431 L84.7918782,7.79695431 C79.0416244,7.89441624 76.0203046,9.94111675 76.0203046,14.1319797 Z" id="Shape"></path>
                                <path d="M100.483249,24.3654822 L100.483249,15.106599 C100.483249,13.9370558 100.775635,13.1573604 101.457868,12.7675127 C102.140102,12.377665 103.212183,12.0852792 104.771574,12.0852792 L116.174619,12.0852792 L116.174619,8.0893401 L102.529949,8.0893401 C97.5593909,8.0893401 95.0253807,10.0385787 95.0253807,14.0345178 L95.0253807,25.3401015 C95.0253807,29.4335025 97.9492386,31.480203 103.894416,31.480203 L116.272081,31.480203 L116.272081,27.484264 L105.063959,27.484264 C101.945178,27.484264 100.483249,26.4121827 100.483249,24.3654822 Z" id="Shape"></path>
                                <path d="M137.323858,8.28426396 L125.141117,8.28426396 L125.141117,0.487309645 L119.683249,0.487309645 L119.683249,31.3827411 L125.141117,31.3827411 L125.141117,14.4243655 C125.141117,13.6446701 125.628426,13.1573604 126.505584,13.1573604 L136.251777,13.1573604 C137.908629,13.1573604 138.980711,13.4497462 139.662944,14.1319797 C140.345178,14.7167513 140.637563,15.7888325 140.637563,17.3482234 L140.637563,31.2852792 L145.99797,31.2852792 L145.99797,15.6913706 C145.99797,10.7208122 143.074112,8.28426396 137.323858,8.28426396 Z" id="Shape"></path>
                                <path d="M158.473096,26.2172589 C157.498477,25.6324873 156.913706,24.4629442 156.913706,22.9035533 L156.913706,0.487309645 L150.773604,0.487309645 L150.773604,24.0730964 C150.773604,26.8020305 151.748223,28.751269 153.697462,29.8233503 C155.646701,30.8954315 158.375635,31.480203 161.981726,31.480203 L178.35533,31.480203 L178.35533,26.9969543 L163.346193,26.9969543 C160.909645,26.9969543 159.252792,26.7045685 158.473096,26.2172589 Z" id="Shape"></path>
                                <path d="M197.847716,8.0893401 L180.304569,8.0893401 L180.304569,12.0852792 L197.06802,12.0852792 C198.724873,12.0852792 199.894416,12.377665 200.479188,13.0598985 C200.966497,13.6446701 201.258883,14.5218274 201.258883,15.8862944 L188.296447,15.8862944 C185.762437,15.8862944 183.813198,16.3736041 182.351269,17.4456853 C180.88934,18.4203046 180.207107,19.8822335 180.207107,21.7340102 L180.207107,25.8274112 C180.207107,27.6791878 180.986802,29.0436548 182.643655,30.115736 C184.105584,31.0903553 186.152284,31.480203 188.588832,31.480203 L199.017259,31.480203 C201.356345,31.480203 203.305584,30.8954315 204.670051,29.8233503 C206.034518,28.751269 206.716751,27.386802 206.716751,25.6324873 L206.716751,14.0345178 C206.619289,10.0385787 203.695431,8.0893401 197.847716,8.0893401 Z M201.161421,24.8527919 C201.161421,26.5096447 199.894416,27.386802 197.360406,27.386802 L189.563452,27.386802 C188.491371,27.386802 187.516751,27.1918782 186.737056,26.7045685 C185.95736,26.2172589 185.567513,25.6324873 185.567513,24.7553299 L185.567513,22.4162437 C185.567513,20.4670051 186.834518,19.4923858 189.46599,19.4923858 L199.894416,19.4923858 C200.771574,19.4923858 201.161421,19.7847716 201.161421,20.2720812 L201.161421,24.8527919 L201.161421,24.8527919 Z" id="Shape"></path>
                                <path d="M235.95533,9.94111675 C234.493401,8.7715736 232.446701,8.28426396 229.91269,8.28426396 L216.950254,8.28426396 L216.950254,0.584771574 L211.492386,0.584771574 L211.492386,25.1451777 C211.492386,27.386802 212.369543,28.9461929 214.026396,30.0182741 C215.780711,30.9928934 217.827411,31.577665 220.263959,31.577665 L229.815228,31.577665 C235.370558,31.577665 238.099492,29.5309645 238.099492,25.3401015 L238.099492,14.3269036 C238.196954,12.5725888 237.417259,11.013198 235.95533,9.94111675 Z M232.739086,24.2680203 C232.739086,25.4375635 232.446701,26.119797 231.861929,26.5096447 C231.082234,27.0944162 229.91269,27.484264 228.255838,27.484264 L221.628426,27.484264 C218.412183,27.484264 216.852792,26.5096447 216.852792,24.4629442 L216.852792,13.1573604 C216.852792,12.4751269 217.340102,12.1827411 218.217259,12.1827411 L228.255838,12.1827411 C231.179695,12.1827411 232.641624,13.2548223 232.641624,15.3989848 L232.641624,24.2680203 L232.739086,24.2680203 Z" id="Shape"></path>
                                <path d="M244.04467,26.119797 C243.264975,26.119797 242.680203,26.4121827 242.095431,26.9969543 C241.608122,27.5817259 241.315736,28.2639594 241.315736,29.0436548 C241.315736,29.8233503 241.608122,30.5055838 242.095431,31.0903553 C242.582741,31.6751269 243.264975,31.9675127 244.04467,31.9675127 C244.824365,31.9675127 245.409137,31.6751269 245.993909,31.0903553 C246.481218,30.5055838 246.773604,29.8233503 246.773604,29.0436548 C246.773604,28.2639594 246.481218,27.5817259 245.993909,26.9969543 C245.506599,26.3147208 244.824365,26.119797 244.04467,26.119797 Z" id="Shape"></path>
                                <rect id="Rectangle-path" x="251.061929" y="0.584771574" width="5.16548223" height="4.09340102"></rect>
                                <rect id="Rectangle-path" x="250.867005" y="8.18680203" width="5.45786802" height="23.293401"></rect>
                                <path d="M285.173604,9.35634518 C283.906599,8.57664975 282.054822,8.18680203 279.42335,8.18680203 L269.969543,8.18680203 C267.338071,8.18680203 265.388832,8.57664975 264.024365,9.35634518 C262.172589,10.4284264 261.295431,12.0852792 261.295431,14.0345178 L261.295431,25.6324873 C261.295431,27.386802 261.977665,28.848731 263.439594,29.8233503 C264.901523,30.8954315 267.045685,31.3827411 269.969543,31.3827411 L279.42335,31.3827411 C281.95736,31.3827411 283.906599,30.9928934 285.076142,30.213198 C286.830457,29.1411168 287.707614,27.6791878 287.707614,25.6324873 L287.707614,14.1319797 C287.805076,11.9878173 286.927919,10.4284264 285.173604,9.35634518 Z M282.347208,24.657868 C282.347208,25.6324873 281.95736,26.3147208 281.080203,26.8994924 C280.39797,27.2893401 279.520812,27.5817259 278.253807,27.5817259 L271.041624,27.5817259 C269.774619,27.5817259 268.8,27.386802 268.117766,26.8994924 C267.240609,26.4121827 266.753299,25.6324873 266.753299,24.657868 L266.753299,15.3015228 C266.753299,14.2294416 267.240609,13.4497462 268.117766,12.9624365 C268.8,12.4751269 269.969543,12.280203 271.431472,12.280203 L277.863959,12.280203 C279.325888,12.280203 280.300508,12.4751269 280.982741,12.9624365 C281.859898,13.4497462 282.249746,14.2294416 282.249746,15.3015228 L282.249746,24.657868 L282.347208,24.657868 Z" id="Shape"></path>
                            </g>
                        </g>
                        <circle id="Oval" fill="#FFFFFF" fill-rule="nonzero" cx="10.5258883" cy="54.7736041" r="1.36446701"></circle>
                    </g>
                </g>
            </g>
        </g>
    </g>
</svg>