<?xml version="1.0" encoding="UTF-8"?>
<svg width="192px" height="38px" viewBox="0 0 192 38" version="1.1" xmlns="http://www.w3.org/2000/svg" xmlns:xlink="http://www.w3.org/1999/xlink">
    <!-- Generator: Sketch 47.1 (45422) - http://www.bohemiancoding.com/sketch -->
    <title>MerchLab-logo-white</title>
    <desc>Created with Sketch.</desc>
    <defs></defs>
    <g id="Page-1" stroke="none" stroke-width="1" fill="none" fill-rule="evenodd">
        <g id="Desktop-1440-+_Main" transform="translate(-120.000000, -21.000000)">
            <g id="Header">
                <g id="MerchLab-logo-white" transform="translate(120.000000, 21.000000)">
                    <g>
                        <g id="Group">
                            <g>
                                <path d="M13.9857868,23.4883249 C13.742132,23.4883249 13.5472081,23.6832487 13.5472081,23.9269036 L13.5472081,25.8274112 C13.5472081,26.071066 13.742132,26.2659898 13.9857868,26.2659898 C14.2294416,26.2659898 14.4243655,26.071066 14.4243655,25.8274112 L14.4243655,23.9269036 C14.3756345,23.6832487 14.1807107,23.4883249 13.9857868,23.4883249 Z" id="Shape" fill="#FFFFFF" fill-rule="nonzero"></path>
                                <path d="M19.5898477,32.6010152 C19.3461929,32.6010152 19.151269,32.7959391 19.151269,33.0395939 L19.151269,33.6243655 C19.151269,33.8680203 19.3461929,34.0629442 19.5898477,34.0629442 C19.8335025,34.0629442 20.0284264,33.8680203 20.0284264,33.6243655 L20.0284264,33.0395939 C20.0284264,32.7959391 19.8335025,32.6010152 19.5898477,32.6010152 Z" id="Shape" fill="#FFFFFF" fill-rule="nonzero"></path>
                                <path d="M13.9857868,32.6010152 C13.742132,32.6010152 13.5472081,32.7959391 13.5472081,33.0395939 L13.5472081,33.6243655 C13.5472081,33.8680203 13.742132,34.0629442 13.9857868,34.0629442 C14.2294416,34.0629442 14.4243655,33.8680203 14.4243655,33.6243655 L14.4243655,33.0395939 C14.3756345,32.7959391 14.1807107,32.6010152 13.9857868,32.6010152 Z" id="Shape" fill="#FFFFFF" fill-rule="nonzero"></path>
                                <path d="M13.9857868,26.8994924 C13.742132,26.8994924 13.5472081,27.0944162 13.5472081,27.3380711 L13.5472081,27.9228426 C13.5472081,28.1664975 13.742132,28.3614213 13.9857868,28.3614213 C14.2294416,28.3614213 14.4243655,28.1664975 14.4243655,27.9228426 L14.4243655,27.3380711 C14.3756345,27.0944162 14.1807107,26.8994924 13.9857868,26.8994924 Z" id="Shape" fill="#FFFFFF" fill-rule="nonzero"></path>
                                <path d="M13.9857868,29.1898477 C13.742132,29.1898477 13.5472081,29.3847716 13.5472081,29.6284264 L13.5472081,31.528934 C13.5472081,31.7725888 13.742132,31.9675127 13.9857868,31.9675127 C14.2294416,31.9675127 14.4243655,31.7725888 14.4243655,31.528934 L14.4243655,29.6284264 C14.3756345,29.3847716 14.1807107,29.1898477 13.9857868,29.1898477 Z" id="Shape" fill="#FFFFFF" fill-rule="nonzero"></path>
                                <path d="M19.5898477,27.9228426 C19.3461929,27.9228426 19.151269,28.1177665 19.151269,28.3614213 L19.151269,31.2365482 C19.151269,31.480203 19.3461929,31.6751269 19.5898477,31.6751269 C19.8335025,31.6751269 20.0284264,31.480203 20.0284264,31.2365482 L20.0284264,28.3614213 C20.0284264,28.1177665 19.8335025,27.9228426 19.5898477,27.9228426 Z" id="Shape" fill="#FFFFFF" fill-rule="nonzero"></path>
                                <path d="M27.0456853,33.0395939 C27.0456853,32.7959391 26.8507614,32.6010152 26.6071066,32.6010152 C26.3634518,32.6010152 26.1685279,32.7959391 26.1685279,33.0395939 L26.1685279,33.6243655 C26.1685279,33.8680203 26.3634518,34.0629442 26.6071066,34.0629442 C26.8507614,34.0629442 27.0456853,33.8680203 27.0456853,33.6243655 L27.0456853,33.0395939 Z" id="Shape" fill="#FFFFFF" fill-rule="nonzero"></path>
                                <path d="M27.0456853,21.8314721 C27.0456853,21.5878173 26.8507614,21.3928934 26.6071066,21.3928934 C26.3634518,21.3928934 26.1685279,21.5878173 26.1685279,21.8314721 L26.1685279,23.1472081 C26.1685279,23.3908629 26.3634518,23.5857868 26.6071066,23.5857868 C26.8507614,23.5857868 27.0456853,23.3908629 27.0456853,23.1472081 L27.0456853,21.8314721 Z" id="Shape" fill="#FFFFFF" fill-rule="nonzero"></path>
                                <path d="M26.6071066,29.1898477 C26.3634518,29.1898477 26.1685279,29.3847716 26.1685279,29.6284264 L26.1685279,31.528934 C26.1685279,31.7725888 26.3634518,31.9675127 26.6071066,31.9675127 C26.8507614,31.9675127 27.0456853,31.7725888 27.0456853,31.528934 L27.0456853,29.6284264 C27.0456853,29.3847716 26.8507614,29.1898477 26.6071066,29.1898477 Z" id="Shape" fill="#FFFFFF" fill-rule="nonzero"></path>
                                <path d="M27.0456853,27.3380711 C27.0456853,27.0944162 26.8507614,26.8994924 26.6071066,26.8994924 C26.3634518,26.8994924 26.1685279,27.0944162 26.1685279,27.3380711 L26.1685279,27.9228426 C26.1685279,28.1664975 26.3634518,28.3614213 26.6071066,28.3614213 C26.8507614,28.3614213 27.0456853,28.1664975 27.0456853,27.9228426 L27.0456853,27.3380711 Z" id="Shape" fill="#FFFFFF" fill-rule="nonzero"></path>
                                <path d="M27.0456853,24.657868 C27.0456853,24.4142132 26.8507614,24.2192893 26.6071066,24.2192893 C26.3634518,24.2192893 26.1685279,24.4142132 26.1685279,24.657868 L26.1685279,25.8274112 C26.1685279,26.071066 26.3634518,26.2659898 26.6071066,26.2659898 C26.8507614,26.2659898 27.0456853,26.071066 27.0456853,25.8274112 L27.0456853,24.657868 Z" id="Shape" fill="#FFFFFF" fill-rule="nonzero"></path>
                                <g>
                                    <path d="M5.94517766,27.386802 C5.94517766,27.0456853 5.70152284,26.8020305 5.40913706,26.7532995 C5.36040609,26.7532995 5.31167513,26.7532995 5.26294416,26.7532995 C5.2142132,26.7532995 5.16548223,26.7532995 5.11675127,26.7532995 C4.82436548,26.8020305 4.58071066,27.0944162 4.58071066,27.386802 C4.58071066,27.5329949 4.62944162,27.6791878 4.72690355,27.7766497 C4.82436548,27.9228426 5.01928934,28.0203046 5.26294416,28.0203046 C5.45786802,28.0203046 5.60406091,27.9228426 5.75025381,27.8253807 C5.75025381,27.8253807 5.75025381,27.8253807 5.79898477,27.7766497 C5.84771574,27.7279188 5.8964467,27.6791878 5.8964467,27.5817259 C5.8964467,27.5329949 5.94517766,27.484264 5.94517766,27.386802 Z" id="Shape"></path>
                                    <ellipse id="Oval" cx="13.9857868" cy="18.7614213" rx="1" ry="1"></ellipse>
                                    <circle id="Oval" cx="26.6071066" cy="17.0071066" r="1"></circle>
                                    <ellipse id="Oval" cx="19.3949239" cy="24.2192893" rx="1" ry="1"></ellipse>
                                    <path d="M2.77766497,15.7888325 C2.77766497,15.8375635 2.77766497,15.8375635 2.82639594,15.8862944 L7.4071066,17.7380711 L7.4071066,15.6426396 L5.84771574,10.0385787 L2.77766497,15.7888325 Z" id="Shape"></path>
                                    <path d="M36.4507614,15.7888325 L33.3807107,10.0385787 L31.8213198,15.5939086 L31.8213198,17.6893401 L36.4507614,15.8375635 C36.4507614,15.8375635 36.4507614,15.8375635 36.4507614,15.7888325 Z" id="Shape"></path>
                                    <path d="M19.2974619,7.89441624 L19.6873096,7.89441624 C19.7360406,7.89441624 19.8335025,7.84568528 19.8335025,7.74822335 L19.8335025,7.11472081 C19.5898477,7.11472081 19.3949239,7.11472081 19.2,7.11472081 L19.2,7.74822335 C19.151269,7.84568528 19.248731,7.89441624 19.2974619,7.89441624 Z" id="Shape"></path>
                                    <path d="M20.4182741,7.74822335 C20.4182741,8.13807107 20.0771574,8.47918782 19.7360406,8.47918782 L19.3461929,8.47918782 C18.9563452,8.47918782 18.6152284,8.13807107 18.6152284,7.74822335 L18.6152284,7.06598985 C17.2020305,7.01725888 16.1786802,6.82233503 15.4964467,6.67614213 C15.7888325,8.72284264 17.4944162,10.2822335 19.6385787,10.2822335 C21.7827411,10.2822335 23.4883249,8.67411168 23.7807107,6.62741117 C22.5624365,6.87106599 21.4416244,7.01725888 20.4182741,7.06598985 L20.4182741,7.74822335 L20.4182741,7.74822335 Z" id="Shape"></path>
                                    <path d="M19.6385787,0.341116751 C8.9177665,0.341116751 0.243654822,9.01522843 0.243654822,19.7360406 C0.243654822,26.4121827 3.65482234,32.3086294 8.7715736,35.8172589 L8.7715736,24.9989848 L7.11472081,26.6071066 C7.21218274,26.8507614 7.26091371,27.0944162 7.26091371,27.3380711 C7.26091371,28.4588832 6.33502538,29.3847716 5.2142132,29.3847716 C4.09340102,29.3847716 3.16751269,28.4588832 3.16751269,27.3380711 C3.16751269,26.2172589 4.09340102,25.2913706 5.2142132,25.2913706 C5.45786802,25.2913706 5.70152284,25.3401015 5.94517766,25.4375635 L8.7715736,22.6598985 L8.7715736,15.5451777 L6.77360406,8.38172589 C6.82233503,8.13807107 7.01725888,7.99187817 7.35837563,7.94314721 L12.1340102,7.06598985 C12.4263959,10.915736 15.6426396,13.9370558 19.5898477,13.9370558 C21.1005076,13.9370558 22.5624365,13.4984772 23.8294416,12.6213198 C24.1218274,12.4263959 24.2192893,11.9878173 24.0243655,11.6467005 C23.8294416,11.3543147 23.3908629,11.2568528 23.0497462,11.4517766 C22.0263959,12.1340102 20.8568528,12.5238579 19.5898477,12.5238579 C16.3248731,12.5238579 13.693401,9.98984772 13.4984772,6.77360406 L14.5705584,6.5786802 C14.8142132,9.11269036 16.9583756,11.1106599 19.5898477,11.1106599 C22.2213198,11.1106599 24.3167513,9.11269036 24.6091371,6.5786802 L25.6812183,6.77360406 C25.6324873,7.94314721 25.2426396,9.06395939 24.5604061,10.0385787 C24.3167513,10.3309645 24.4142132,10.7695431 24.706599,11.013198 C24.8527919,11.1106599 24.9502538,11.1593909 25.0964467,11.1593909 C25.2913706,11.1593909 25.5350254,11.0619289 25.6324873,10.8670051 C26.4609137,9.74619289 26.8994924,8.43045685 27.0456853,7.06598985 L31.9675127,7.99187817 C32.2111675,7.99187817 32.4060914,8.18680203 32.4548223,8.38172589 L30.4568528,15.3502538 L30.4081218,35.8172589 C35.622335,32.3086294 38.9847716,26.4121827 38.9847716,19.6873096 C38.9847716,9.01522843 30.3106599,0.341116751 19.6385787,0.341116751 Z M7.4071066,15.6426396 L7.4071066,17.7380711 L2.82639594,15.8862944 C2.77766497,15.8862944 2.77766497,15.8375635 2.77766497,15.7888325 L5.84771574,10.0385787 L7.4071066,15.6426396 Z M19.151269,7.11472081 C19.3461929,7.11472081 19.5898477,7.11472081 19.7847716,7.11472081 L19.7847716,7.74822335 C19.7847716,7.79695431 19.7360406,7.89441624 19.6385787,7.89441624 L19.248731,7.89441624 C19.2,7.89441624 19.1025381,7.84568528 19.1025381,7.74822335 L19.1025381,7.11472081 L19.151269,7.11472081 Z M19.5898477,10.2822335 C17.4944162,10.2822335 15.7401015,8.72284264 15.4477157,6.67614213 C16.0812183,6.82233503 17.1532995,7.01725888 18.5664975,7.06598985 L18.5664975,7.74822335 C18.5664975,8.13807107 18.9076142,8.47918782 19.2974619,8.47918782 L19.6873096,8.47918782 C20.0771574,8.47918782 20.3695431,8.13807107 20.3695431,7.74822335 L20.3695431,7.06598985 C21.3928934,7.01725888 22.5137056,6.87106599 23.7319797,6.62741117 C23.4883249,8.67411168 21.7340102,10.2822335 19.5898477,10.2822335 Z M31.8213198,17.7380711 L31.8213198,15.6426396 L33.3807107,10.0873096 L36.4507614,15.8375635 C36.4507614,15.8862944 36.4507614,15.8862944 36.4020305,15.9350254 L31.8213198,17.7380711 Z" id="Shape" fill="#FFFFFF" fill-rule="nonzero"></path>
                                    <path d="M13.2060914,20.613198 C13.4497462,20.7106599 13.693401,20.7593909 13.9370558,20.7593909 C14.1807107,20.7593909 14.4243655,20.7106599 14.6680203,20.613198 L17.4944162,23.4395939 C17.3969543,23.6832487 17.3482234,23.9269036 17.3482234,24.1705584 C17.3482234,25.2913706 18.2741117,26.2172589 19.3949239,26.2172589 C20.515736,26.2172589 21.4416244,25.3401015 21.4416244,24.2192893 C21.4416244,23.9756345 21.3928934,23.7319797 21.2954315,23.4883249 L25.8761421,18.9076142 C26.119797,19.0050761 26.3634518,19.0538071 26.6071066,19.0538071 C27.7279188,19.0538071 28.6538071,18.1279188 28.6538071,17.0071066 C28.6538071,15.8862944 27.7279188,14.9604061 26.6071066,14.9604061 C25.4862944,14.9604061 24.5604061,15.8862944 24.5604061,17.0071066 C24.5604061,17.2507614 24.6091371,17.4944162 24.706599,17.7380711 L20.1258883,22.3187817 C19.8822335,22.2213198 19.6385787,22.1725888 19.3949239,22.1725888 C19.151269,22.1725888 18.9076142,22.2213198 18.6639594,22.3187817 L15.8375635,19.4923858 C15.9350254,19.248731 15.9837563,19.0050761 15.9837563,18.7614213 C15.9837563,17.6406091 15.057868,16.7147208 13.9370558,16.7147208 C12.8162437,16.7147208 11.8903553,17.6406091 11.8903553,18.7614213 C11.8903553,19.0050761 11.9390863,19.248731 12.0365482,19.4436548 L8.7715736,22.7086294 L8.7715736,25.0477157 L13.2060914,20.613198 Z M26.6071066,16.3248731 C26.9482234,16.3248731 27.2893401,16.6172589 27.2893401,16.9583756 C27.2893401,17.2994924 26.9969543,17.6406091 26.6071066,17.6406091 C26.2659898,17.6406091 25.9736041,17.3482234 25.9736041,16.9583756 C25.9736041,16.6172589 26.2659898,16.3248731 26.6071066,16.3248731 Z M19.3949239,23.5370558 C19.7360406,23.5370558 20.0284264,23.8294416 20.0284264,24.1705584 C20.0284264,24.5116751 19.7360406,24.8527919 19.3949239,24.8527919 C19.0538071,24.8527919 18.7614213,24.5604061 18.7614213,24.1705584 C18.7614213,23.8294416 19.0538071,23.5370558 19.3949239,23.5370558 Z M13.9857868,18.0791878 C14.3269036,18.0791878 14.6192893,18.3715736 14.6192893,18.7614213 C14.6192893,19.1025381 14.3269036,19.3949239 13.9857868,19.3949239 C13.6446701,19.3949239 13.3522843,19.1025381 13.3522843,18.7614213 C13.3035533,18.3715736 13.5959391,18.0791878 13.9857868,18.0791878 Z" id="Shape" fill="#FFFFFF" fill-rule="nonzero"></path>
                                    <path d="M5.11675127,26.7045685 C4.82436548,26.7532995 4.58071066,27.0456853 4.58071066,27.3380711 C4.58071066,27.484264 4.62944162,27.6304569 4.72690355,27.7279188 C4.62944162,27.6304569 4.58071066,27.484264 4.58071066,27.3380711 C4.62944162,27.0456853 4.82436548,26.8020305 5.11675127,26.7045685 Z" id="Shape" fill="#FFFFFF" fill-rule="nonzero"></path>
                                    <path d="M5.94517766,27.386802 C5.94517766,27.484264 5.94517766,27.5817259 5.8964467,27.6304569 C5.8964467,27.5329949 5.94517766,27.484264 5.94517766,27.386802 C5.94517766,27.0456853 5.70152284,26.8020305 5.40913706,26.7532995 C5.70152284,26.8020305 5.94517766,27.0456853 5.94517766,27.386802 Z" id="Shape" fill="#FFFFFF" fill-rule="nonzero"></path>
                                </g>
                                <g transform="translate(13.157360, 34.598985)" id="Shape" fill-rule="nonzero" fill="#FFFFFF">
                                    <path d="M6.43248731,0.389847716 C6.18883249,0.389847716 5.99390863,0.584771574 5.99390863,0.828426396 L5.99390863,0.828426396 L5.99390863,0.828426396 L5.99390863,2.72893401 L5.99390863,2.72893401 L5.99390863,2.72893401 C5.99390863,2.97258883 6.18883249,3.16751269 6.43248731,3.16751269 C6.67614213,3.16751269 6.87106599,2.97258883 6.87106599,2.72893401 L6.87106599,2.72893401 L6.87106599,2.72893401 L6.87106599,0.828426396 L6.87106599,0.828426396 L6.87106599,0.828426396 C6.87106599,0.536040609 6.67614213,0.389847716 6.43248731,0.389847716 Z"></path>
                                    <path d="M0.828426396,0.389847716 C0.584771574,0.389847716 0.389847716,0.584771574 0.389847716,0.828426396 L0.389847716,0.828426396 L0.389847716,0.828426396 L0.389847716,2.43654822 L0.389847716,2.43654822 L0.389847716,2.43654822 C0.389847716,2.68020305 0.584771574,2.8751269 0.828426396,2.8751269 C1.07208122,2.8751269 1.26700508,2.68020305 1.26700508,2.43654822 L1.26700508,2.43654822 L1.26700508,2.43654822 L1.26700508,0.828426396 L1.26700508,0.828426396 L1.26700508,0.828426396 C1.21827411,0.536040609 1.02335025,0.389847716 0.828426396,0.389847716 Z"></path>
                                    <path d="M13.8883249,0.779695431 C13.8883249,0.536040609 13.693401,0.341116751 13.4497462,0.341116751 C13.2060914,0.341116751 13.0111675,0.536040609 13.0111675,0.779695431 L13.0111675,0.779695431 L13.0111675,0.779695431 L13.0111675,2.38781726 L13.0111675,2.38781726 L13.0111675,2.38781726 C13.0111675,2.63147208 13.2060914,2.82639594 13.4497462,2.82639594 C13.693401,2.82639594 13.8883249,2.63147208 13.8883249,2.38781726 L13.8883249,2.38781726 L13.8883249,2.38781726 L13.8883249,0.779695431 L13.8883249,0.779695431 L13.8883249,0.779695431 Z"></path>
                                </g>
                            </g>
                            <g transform="translate(47.756345, 11.208122)" fill-rule="nonzero" fill="#FFFFFF">
                                <path d="M18.6152284,0.243654822 C17.3969543,0.243654822 16.5685279,0.730964467 16.0812183,1.70558376 L10.6233503,12.7187817 L5.26294416,1.75431472 C4.77563452,0.779695431 3.94720812,0.292385787 2.68020305,0.292385787 C1.85177665,0.292385787 1.21827411,0.487309645 0.730964467,0.87715736 C0.243654822,1.26700508 0.0487309645,1.75431472 0.0487309645,2.33908629 L0.0487309645,15.8375635 L2.97258883,15.8375635 L2.97258883,3.65482234 L8.52791878,14.6192893 C8.7715736,15.106599 9.01522843,15.4477157 9.21015228,15.6426396 C9.55126904,15.9350254 10.0385787,16.1299492 10.6233503,16.1299492 C11.5492386,16.1299492 12.328934,15.5939086 12.8162437,14.5218274 L18.2741117,3.65482234 L18.2741117,15.8375635 L21.1979695,15.8375635 L21.1979695,2.38781726 C21.1979695,1.75431472 20.9543147,1.26700508 20.515736,0.87715736 C20.1258883,0.43857868 19.4436548,0.243654822 18.6152284,0.243654822 Z" id="Shape"></path>
                                <path d="M32.7959391,4.09340102 L28.0203046,4.09340102 C25.0964467,4.09340102 23.6832487,5.0680203 23.6832487,7.06598985 L23.6832487,12.5725888 C23.6832487,13.742132 24.1218274,14.5705584 24.9989848,15.057868 C25.6812183,15.4964467 26.8020305,15.7401015 28.2639594,15.7401015 L36.8406091,15.7401015 L36.8406091,13.742132 L28.751269,13.742132 C27.9715736,13.742132 27.435533,13.6446701 27.0944162,13.4984772 C26.6071066,13.2060914 26.4121827,12.7675127 26.4121827,12.1827411 L26.4121827,11.7928934 L26.3634518,9.84365482 L26.3634518,9.74619289 L34.0629442,9.74619289 L34.3553299,9.74619289 L36.8406091,9.74619289 L36.8406091,7.26091371 C36.8406091,5.11675127 35.5248731,4.09340102 32.7959391,4.09340102 Z M26.3634518,7.94314721 L26.3634518,7.55329949 C26.3634518,6.52994924 27.1918782,6.04263959 28.848731,6.04263959 L31.8700508,6.04263959 C33.3319797,6.04263959 34.0142132,6.48121827 34.0142132,7.35837563 L34.0142132,7.50456853 L34.0142132,7.89441624 L26.3634518,7.89441624 L26.3634518,7.94314721 Z" id="Shape"></path>
                                <path d="M38.0101523,7.06598985 L38.0101523,15.6426396 L40.8365482,15.6426396 L40.8365482,7.60203046 C40.8365482,6.77360406 41.177665,6.23756345 41.9086294,6.04263959 C42.2497462,5.94517766 43.4680203,5.8964467 45.5634518,5.8964467 L45.5634518,3.89847716 L42.3959391,3.89847716 C39.5208122,3.94720812 38.0101523,4.97055838 38.0101523,7.06598985 Z" id="Shape"></path>
                                <path d="M50.2416244,12.1827411 L50.2416244,7.55329949 C50.2416244,6.96852792 50.3878173,6.5786802 50.728934,6.38375635 C51.0700508,6.18883249 51.6060914,6.04263959 52.3857868,6.04263959 L58.0873096,6.04263959 L58.0873096,4.04467005 L51.2649746,4.04467005 C48.7796954,4.04467005 47.5126904,5.01928934 47.5126904,7.01725888 L47.5126904,12.6700508 C47.5126904,14.7167513 48.9746193,15.7401015 51.9472081,15.7401015 L58.1360406,15.7401015 L58.1360406,13.742132 L52.5319797,13.742132 C50.9725888,13.742132 50.2416244,13.2060914 50.2416244,12.1827411 Z" id="Shape"></path>
                                <path d="M68.6619289,4.14213198 L62.5705584,4.14213198 L62.5705584,0.243654822 L59.8416244,0.243654822 L59.8416244,15.6913706 L62.5705584,15.6913706 L62.5705584,7.21218274 C62.5705584,6.82233503 62.8142132,6.5786802 63.2527919,6.5786802 L68.1258883,6.5786802 C68.9543147,6.5786802 69.4903553,6.7248731 69.8314721,7.06598985 C70.1725888,7.35837563 70.3187817,7.89441624 70.3187817,8.67411168 L70.3187817,15.6426396 L72.9989848,15.6426396 L72.9989848,7.84568528 C72.9989848,5.36040609 71.5370558,4.14213198 68.6619289,4.14213198 Z" id="Shape"></path>
                                <path d="M79.2365482,13.1086294 C78.7492386,12.8162437 78.4568528,12.2314721 78.4568528,11.4517766 L78.4568528,0.243654822 L75.386802,0.243654822 L75.386802,12.0365482 C75.386802,13.4010152 75.8741117,14.3756345 76.848731,14.9116751 C77.8233503,15.4477157 79.1878173,15.7401015 80.9908629,15.7401015 L89.177665,15.7401015 L89.177665,13.4984772 L81.6730964,13.4984772 C80.4548223,13.4984772 79.6263959,13.3522843 79.2365482,13.1086294 Z" id="Shape"></path>
                                <path d="M98.9238579,4.04467005 L90.1522843,4.04467005 L90.1522843,6.04263959 L98.5340102,6.04263959 C99.3624365,6.04263959 99.9472081,6.18883249 100.239594,6.52994924 C100.483249,6.82233503 100.629442,7.26091371 100.629442,7.94314721 L94.1482234,7.94314721 C92.8812183,7.94314721 91.906599,8.18680203 91.1756345,8.72284264 C90.4446701,9.21015228 90.1035533,9.94111675 90.1035533,10.8670051 L90.1035533,12.9137056 C90.1035533,13.8395939 90.493401,14.5218274 91.3218274,15.057868 C92.0527919,15.5451777 93.0761421,15.7401015 94.2944162,15.7401015 L99.5086294,15.7401015 C100.678173,15.7401015 101.652792,15.4477157 102.335025,14.9116751 C103.017259,14.3756345 103.358376,13.693401 103.358376,12.8162437 L103.358376,7.01725888 C103.309645,5.01928934 101.847716,4.04467005 98.9238579,4.04467005 Z M100.580711,12.4263959 C100.580711,13.2548223 99.9472081,13.693401 98.680203,13.693401 L94.7817259,13.693401 C94.2456853,13.693401 93.7583756,13.5959391 93.3685279,13.3522843 C92.9786802,13.1086294 92.7837563,12.8162437 92.7837563,12.377665 L92.7837563,11.2081218 C92.7837563,10.2335025 93.4172589,9.74619289 94.7329949,9.74619289 L99.9472081,9.74619289 C100.385787,9.74619289 100.580711,9.89238579 100.580711,10.1360406 L100.580711,12.4263959 L100.580711,12.4263959 Z" id="Shape"></path>
                                <path d="M117.977665,4.97055838 C117.246701,4.3857868 116.22335,4.14213198 114.956345,4.14213198 L108.475127,4.14213198 L108.475127,0.292385787 L105.746193,0.292385787 L105.746193,12.5725888 C105.746193,13.693401 106.184772,14.4730964 107.013198,15.0091371 C107.890355,15.4964467 108.913706,15.7888325 110.13198,15.7888325 L114.907614,15.7888325 C117.685279,15.7888325 119.049746,14.7654822 119.049746,12.6700508 L119.049746,7.16345178 C119.098477,6.28629442 118.708629,5.50659898 117.977665,4.97055838 Z M116.369543,12.1340102 C116.369543,12.7187817 116.22335,13.0598985 115.930964,13.2548223 C115.541117,13.5472081 114.956345,13.742132 114.127919,13.742132 L110.814213,13.742132 C109.206091,13.742132 108.426396,13.2548223 108.426396,12.2314721 L108.426396,6.5786802 C108.426396,6.23756345 108.670051,6.09137056 109.108629,6.09137056 L114.127919,6.09137056 C115.589848,6.09137056 116.320812,6.62741117 116.320812,7.69949239 L116.320812,12.1340102 L116.369543,12.1340102 Z" id="Shape"></path>
                                <path d="M122.022335,13.0598985 C121.632487,13.0598985 121.340102,13.2060914 121.047716,13.4984772 C120.804061,13.7908629 120.657868,14.1319797 120.657868,14.5218274 C120.657868,14.9116751 120.804061,15.2527919 121.047716,15.5451777 C121.291371,15.8375635 121.632487,15.9837563 122.022335,15.9837563 C122.412183,15.9837563 122.704569,15.8375635 122.996954,15.5451777 C123.240609,15.2527919 123.386802,14.9116751 123.386802,14.5218274 C123.386802,14.1319797 123.240609,13.7908629 122.996954,13.4984772 C122.753299,13.1573604 122.412183,13.0598985 122.022335,13.0598985 Z" id="Shape"></path>
                                <rect id="Rectangle-path" x="125.530964" y="0.292385787" width="2.58274112" height="2.04670051"></rect>
                                <rect id="Rectangle-path" x="125.433503" y="4.09340102" width="2.72893401" height="11.6467005"></rect>
                                <path d="M142.586802,4.67817259 C141.953299,4.28832487 141.027411,4.09340102 139.711675,4.09340102 L134.984772,4.09340102 C133.669036,4.09340102 132.694416,4.28832487 132.012183,4.67817259 C131.086294,5.2142132 130.647716,6.04263959 130.647716,7.01725888 L130.647716,12.8162437 C130.647716,13.693401 130.988832,14.4243655 131.719797,14.9116751 C132.450761,15.4477157 133.522843,15.6913706 134.984772,15.6913706 L139.711675,15.6913706 C140.97868,15.6913706 141.953299,15.4964467 142.538071,15.106599 C143.415228,14.5705584 143.853807,13.8395939 143.853807,12.8162437 L143.853807,7.06598985 C143.902538,5.99390863 143.463959,5.2142132 142.586802,4.67817259 Z M141.173604,12.328934 C141.173604,12.8162437 140.97868,13.1573604 140.540102,13.4497462 C140.198985,13.6446701 139.760406,13.7908629 139.126904,13.7908629 L135.520812,13.7908629 C134.88731,13.7908629 134.4,13.693401 134.058883,13.4497462 C133.620305,13.2060914 133.37665,12.8162437 133.37665,12.328934 L133.37665,7.65076142 C133.37665,7.11472081 133.620305,6.7248731 134.058883,6.48121827 C134.4,6.23756345 134.984772,6.14010152 135.715736,6.14010152 L138.93198,6.14010152 C139.662944,6.14010152 140.150254,6.23756345 140.491371,6.48121827 C140.929949,6.7248731 141.124873,7.11472081 141.124873,7.65076142 L141.124873,12.328934 L141.173604,12.328934 Z" id="Shape"></path>
                            </g>
                        </g>
                        <circle id="Oval" fill="#FFFFFF" fill-rule="nonzero" cx="5.26294416" cy="27.386802" r="1"></circle>
                    </g>
                </g>
            </g>
        </g>
    </g>
</svg>