<?xml version="1.0" encoding="UTF-8"?>
<svg width="582px" height="658px" viewBox="0 0 582 658" version="1.1" xmlns="http://www.w3.org/2000/svg" xmlns:xlink="http://www.w3.org/1999/xlink">
    <!-- Generator: Sketch 47.1 (45422) - http://www.bohemiancoding.com/sketch -->
    <title>636</title>
    <desc>Created with Sketch.</desc>
    <defs></defs>
    <g id="Page-1" stroke="none" stroke-width="1" fill="none" fill-rule="evenodd">
        <g id="Desktop-1440-+_Main_2" transform="translate(-684.000000, -3551.000000)">
            <g id="636" transform="translate(684.000000, 3469.000000)">
                <g transform="translate(0.000000, 81.400000)">
                    <path d="M104.662311,550.854356 C104.662311,550.854356 102.514667,541.466222 105.487,540.990156 C106.902867,540.763222 107.656844,543.229889 109.454222,543.688689 C112.891933,544.566822 115.522222,548.781533 115.522222,548.781533 L104.662311,550.854356" id="Fill-1" fill="#EC965D"></path>
                    <path d="M270.094244,282.0584 C270.094244,278.520378 263.653778,275.652467 255.710289,275.652467 C247.765978,275.652467 241.326333,278.520378 241.326333,282.0584 C241.326333,285.596422 247.765978,288.464333 255.710289,288.464333 C263.653778,288.464333 270.094244,285.596422 270.094244,282.0584" id="Fill-2" fill="#202128"></path>
                    <path d="M553.835733,655.656444 L3.57666667,655.656444 C1.77435556,655.656444 0.314088889,654.196178 0.314088889,652.393867 C0.314088889,650.592378 1.77435556,649.131289 3.57666667,649.131289 L553.835733,649.131289 C555.637222,649.131289 557.098311,650.592378 557.098311,652.393867 C557.098311,654.196178 555.637222,655.656444 553.835733,655.656444" id="Fill-3" fill-opacity="0.206946332" fill="#FFFFFF"></path>
                    <path d="M442.752689,487.419089 L442.063667,486.6832 C439.298533,483.731422 434.664489,483.580133 431.714356,486.344444 L427.1724,490.598622 C426.122422,491.582822 424.472222,491.528556 423.488022,490.478578 L423.451844,490.439933 C422.467644,489.389133 420.818267,489.334867 419.766644,490.319067 L410.503489,498.9968 C409.451867,499.981 409.398422,501.6312 410.382622,502.682 L417.896911,510.702778 L426.337844,502.796289 L425.398044,501.793178 L428.446844,500.820489 L442.752689,487.419089" id="Fill-4" fill="#58281F"></path>
                    <path d="M425.065867,491.199667 L395.985511,461.984467 C394.135511,460.1246 391.619511,459.079556 388.9958,459.079556 L378.0142,459.079556 L378.0142,477.651911 L383.346311,477.651911 C384.567311,477.651911 385.738156,478.1362 386.599844,478.999533 L411.933333,504.331378 L425.065867,491.199667" id="Fill-5" fill="#202128"></path>
                    <path d="M95.9196222,655.656444 L30.8497778,655.656444 C25.6442889,655.656444 21.4262889,651.437622 21.4262889,646.233778 L21.4262889,579.609933 C21.4262889,574.405267 25.6442889,570.186444 30.8497778,570.186444 L95.9196222,570.186444 C101.124289,570.186444 105.343111,574.405267 105.343111,579.609933 L105.343111,646.233778 C105.343111,651.437622 101.124289,655.656444 95.9196222,655.656444" id="Fill-6" fill="#B2252A"></path>
                    <path d="M197.505178,549.9828 L132.434511,549.9828 C127.229844,549.9828 123.011022,545.763978 123.011022,540.560133 L123.011022,451.178 C123.011022,445.973333 127.229844,441.754511 132.434511,441.754511 L197.505178,441.754511 C202.709844,441.754511 206.928667,445.973333 206.928667,451.178 L206.928667,540.560133 C206.928667,545.763978 202.709844,549.9828 197.505178,549.9828" id="Fill-7" fill="#CE492B"></path>
                    <path d="M302.557222,655.656444 L237.485733,655.656444 C232.281067,655.656444 228.062244,651.437622 228.062244,646.233778 L228.062244,418.724889 C228.062244,413.520222 232.281067,409.3014 237.485733,409.3014 L302.557222,409.3014 C307.761067,409.3014 311.979889,413.520222 311.979889,418.724889 L311.979889,646.233778 C311.979889,651.437622 307.761067,655.656444 302.557222,655.656444" id="Fill-8" fill="#F2AF2A"></path>
                    <path d="M417.187333,655.656444 L352.115844,655.656444 C346.912,655.656444 342.693178,651.437622 342.693178,646.233778 L342.693178,485.089733 C342.693178,479.885889 346.912,475.666244 352.115844,475.666244 L417.187333,475.666244 C422.391178,475.666244 426.610822,479.885889 426.610822,485.089733 L426.610822,646.233778 C426.610822,651.437622 422.391178,655.656444 417.187333,655.656444" id="Fill-9" fill="#D19330"></path>
                    <path d="M82.3661111,655.656444 L17.2946222,655.656444 C12.0907778,655.656444 7.87195556,651.437622 7.87195556,646.233778 L7.87195556,579.609933 C7.87195556,574.405267 12.0907778,570.186444 17.2946222,570.186444 L82.3661111,570.186444 C87.5699556,570.186444 91.7887778,574.405267 91.7887778,579.609933 L91.7887778,646.233778 C91.7887778,651.437622 87.5699556,655.656444 82.3661111,655.656444" id="Fill-10" fill="#CB242A"></path>
                    <path d="M193.370222,451.178 L193.370222,540.561778 C193.370222,545.766444 189.152222,549.984444 183.947556,549.984444 L118.876889,549.984444 C113.828444,549.984444 109.709111,546.021333 109.462444,541.030444 C109.454222,540.874222 109.454222,540.718 109.454222,540.561778 L109.454222,451.178 C109.454222,445.973333 113.672222,441.755333 118.876889,441.755333 L183.947556,441.755333 C189.152222,441.755333 193.370222,445.973333 193.370222,451.178" id="Fill-11" fill="#E0562A"></path>
                    <path d="M120.25,548.011111 L119.041333,549.984444 L118.876889,549.984444 C113.828444,549.984444 109.709111,546.021333 109.462444,541.030444 L120.25,548.011111" id="Fill-12" fill="#AF402B"></path>
                    <path d="M193.370222,515.845778 L193.370222,540.561778 C193.370222,545.766444 189.152222,549.984444 183.947556,549.984444 L164.214222,549.984444 L177.295778,512.672 C184.284667,513.502444 185.945556,513.107778 185.945556,513.107778 C185.945556,513.107778 190.204667,511.644222 193.370222,515.845778" id="Fill-13" fill="#AF402B"></path>
                    <path d="M289.002067,655.656444 L223.9314,655.656444 C218.727556,655.656444 214.508733,651.437622 214.508733,646.233778 L214.508733,418.724889 C214.508733,413.520222 218.727556,409.3014 223.9314,409.3014 L289.002067,409.3014 C294.205911,409.3014 298.425556,413.520222 298.425556,418.724889 L298.425556,646.233778 C298.425556,651.437622 294.205911,655.656444 289.002067,655.656444" id="Fill-14" fill="#F9D021"></path>
                    <path d="M403.633,655.656444 L338.562333,655.656444 C333.357667,655.656444 329.138844,651.437622 329.138844,646.233778 L329.138844,485.089733 C329.138844,479.885889 333.357667,475.666244 338.562333,475.666244 L403.633,475.666244 C408.836844,475.666244 413.055667,479.885889 413.055667,485.089733 L413.055667,646.233778 C413.055667,651.437622 408.836844,655.656444 403.633,655.656444" id="Fill-15" fill="#F2AF2A"></path>
                    <path d="M87.7459111,408.564689 L85.6426667,405.478067 C85.2792444,404.925533 85.7388667,399.169978 83.3700444,400.802089 C81.3753333,402.176022 81.6573556,405.478889 83.6586444,408.325422 C84.0212444,408.840956 83.9192889,409.549711 83.4185556,409.932867 L87.7459111,408.564689" id="Fill-16" fill="#F1AC78"></path>
                    <path d="M83.4185556,409.932867 L83.3947111,409.950956 C82.9474222,410.293822 82.3274667,410.257644 81.9048444,409.886 C80.6073778,408.747222 78.7170889,408.630467 77.9080222,410.3004 C76.9493111,412.277844 80.7381111,411.757378 81.3860222,413.488156 C82.3192444,415.977844 85.2924,416.349489 86.3497778,416.143111 L87.6587556,421.195667 L91.0126,419.342378 L89.5367111,414.918822 C91.0479556,414.283244 91.5799333,406.806778 89.7102,406.605333 C88.8279556,406.509956 89.1083333,407.7696 87.7459111,408.564689 L83.4185556,409.932867" id="Fill-17" fill="#EC965D"></path>
                    <path d="M88.3173556,406.031422 C87.3652222,404.168267 81.3465556,406.283844 81.4797556,409.8786 C81.6129556,413.473356 84.5770667,413.709333 85.1444,411.597044 C85.7117333,409.483933 84.9865333,409.2866 84.9865333,409.2866 C84.9865333,409.2866 89.0729778,407.509778 88.3173556,406.031422" id="Fill-18" fill="#F1AC78"></path>
                    <path d="M90.1698222,406.926 C89.5745333,406.202444 86.6770222,405.7568 85.2118222,407.994067 C83.7466222,410.231333 84.5532222,412.930689 86.2790667,412.369933 C88.1636,411.757378 87.9966889,409.297289 87.9966889,409.297289 C87.9966889,409.297289 91.3595778,408.374756 90.1698222,406.926" id="Fill-19" fill="#F1AC78"></path>
                    <path d="M84.9215778,419.083378 L92.9464667,415.51" id="Stroke-20" stroke="#FFFFFE" stroke-width="5.32" fill="#D8D8D8"></path>
                    <path d="M50.7738667,452.833956 C50.7738667,452.833956 73.223,454.995578 86.3464889,447.123622 C99.4691556,439.252489 88.9710222,416.896267 88.9710222,416.896267" id="Stroke-21" stroke="#202128" stroke-width="13.3" fill="#D8D8D8"></path>
                    <path d="M65.9989556,455.231556 C65.9989556,458.943889 59.2337111,461.954044 50.8889778,461.954044 C42.5434222,461.954044 35.7781778,458.943889 35.7781778,455.231556 C35.7781778,451.5184 42.5434222,448.508244 50.8889778,448.508244 C59.2337111,448.508244 65.9989556,451.5184 65.9989556,455.231556" id="Fill-22" fill="#2C2C37"></path>
                    <path d="M21.3399556,570.479156 L21.3399556,569.716133 C21.3399556,566.657467 23.8206,564.176822 26.8792667,564.176822 L31.5864889,564.176822 C32.6751111,564.176822 33.5581778,563.293756 33.5581778,562.205133 L33.5581778,562.164844 C33.5581778,561.0754 34.4420667,560.193156 35.5306889,560.193156 L45.1334222,560.193156 C46.2220444,560.193156 47.1051111,561.0754 47.1051111,562.164844 L47.1051111,570.479156 L38.3558444,570.479156 L38.3558444,569.439867 L36.1687333,570.479156 L21.3399556,570.479156" id="Fill-23" fill="#58281F"></path>
                    <path d="M80.6353333,570.326222 L80.6353333,569.5632 C80.6353333,566.503711 78.1555111,564.023889 75.0960222,564.023889 L70.3888,564.023889 C69.3001778,564.023889 68.4171111,563.140822 68.4171111,562.051378 L68.4171111,562.011911 C68.4171111,560.922467 67.5340444,560.0394 66.4454222,560.0394 L56.8426889,560.0394 C55.7540667,560.0394 54.8701778,560.922467 54.8701778,562.011911 L54.8701778,570.326222 L63.6194444,570.326222 L63.6194444,569.286933 L65.8065556,570.326222 L80.6353333,570.326222" id="Fill-24" fill="#58281F"></path>
                    <polyline id="Fill-25" fill="#202128" points="47.6708 561.328644 47.6946444 497.017711 54.0002667 497.017711 54.1688222 561.328644 68.6407556 561.104178 66.0540444 483.681267 35.6688222 483.681267 33.3345333 561.104178 47.6708 561.328644"></polyline>
                    <polyline id="Fill-26" fill="#131513" points="35.6729333 485.440822 66.0581556 485.440822 67.0629111 513.859289 54.0438444 513.859289 54.0043778 498.776444 47.6987556 498.776444 47.6880667 513.859289 34.7586222 513.859289 35.6729333 485.440822"></polyline>
                    <path d="M50.8486889,447.998467 C30.2084444,447.998467 32.7688444,460.591622 32.7688444,460.591622 L32.7688444,509.677467 L68.7591556,509.677467 L68.7591556,460.6426 C68.7591556,460.6426 71.4881111,447.998467 50.8486889,447.998467" id="Fill-27" fill="#202128"></path>
                    <path d="M33.9331111,493.701689 C33.9331111,493.701689 35.5997556,493.965622 37.6462667,494.717133 C39.6738667,495.462067 41.2377333,492.895911 37.7120444,491.673267 C36.5847778,491.281889 35.6326444,490.993289 34.8046667,490.832956 C36.1185778,490.086378 38.0795778,488.793022 37.7983778,487.861444 C37.0855111,485.504133 34.4157556,486.931511 32.5435556,488.847289 C31.1474222,490.275489 30.3227333,492.464244 29.8368,493.748556 C29.7068889,494.0388 29.5778,494.345489 29.4478889,494.683422 C27.5863778,499.555911 34.5900667,502.316111 36.2731556,501.141978 C38.8960444,499.314178 32.4802444,497.270956 32.4802444,497.270956 C32.4802444,497.270956 37.1726667,500.013067 38.4627333,497.992044 C39.479,496.401867 35.4756,494.4014 33.9331111,493.701689" id="Fill-28" fill="#F1AC78"></path>
                    <path d="M31.2271778,487.039222 L26.9154444,494.692467" id="Stroke-29" stroke="#FFFFFE" stroke-width="5.32" fill="#D8D8D8"></path>
                    <path d="M26.7567556,495.821378 C25.9731778,495.416844 7.58911111,485.734356 9.61753333,469.465044 C11.7216,452.593867 37.1422444,446.287422 53.909,448.378333 L52.5564444,459.230022 C45.8413556,458.393 37.6364,459.3328 31.1433111,461.684356 C28.1405556,462.770511 21.09,465.836578 20.4700444,470.818422 C19.4036222,479.370356 31.6604889,486.045156 31.7846444,486.110111 L26.7567556,495.821378" id="Fill-30" fill="#202128"></path>
                    <polyline id="Fill-31" fill="#FFFFFE" points="41.6669333 449.889578 50.8486889 476.768022 60.1102 449.889578 41.6669333 449.889578"></polyline>
                    <path d="M60.0674444,452.859444 L59.9687778,452.811756 C54.1984222,450.034289 47.4767556,450.035111 41.7080444,452.815044 L41.6159556,452.859444 L44.1467556,460.205178 L50.8412889,455.251289 L57.5358222,460.205178 L60.0674444,452.859444" id="Fill-32" fill="#A59A95"></path>
                    <polyline id="Fill-33" fill="#0E0D0C" points="52.7365111 471.268178 50.8404667 476.769667 48.9616889 471.267356 50.8807556 449.891222 52.7365111 471.268178"></polyline>
                    <path d="M50.8322444,457.537067 L50.8643111,457.537067 C51.7991778,457.537067 52.6214,456.922044 52.8861556,456.025822 L53.9369556,452.468067 C54.3357333,451.117156 53.3235778,449.762956 51.9151111,449.762956 L49.7822667,449.762956 C48.3738,449.762956 47.3624667,451.117156 47.7604222,452.468067 L48.8112222,456.025822 C49.0759778,456.922044 49.8990222,457.537067 50.8322444,457.537067" id="Fill-34" fill="#0E0D0C"></path>
                    <path d="M60.1093778,449.889578 L60.0115333,449.841889 C54.242,447.064422 47.5203333,447.065244 41.7508,449.845178 L41.6587111,449.889578 L44.1903333,457.235311 L50.8848667,452.829022 L57.5785778,457.235311 L60.1093778,449.889578" id="Fill-35" fill="#FFFFFE"></path>
                    <polyline id="Fill-36" fill="#2C2C37" points="50.8404667 476.769667 60.1102 448.207311 66.7619778 451.127022 62.7421333 456.494489 60.1102 457.522267 61.2169111 461.066867 50.8404667 476.769667"></polyline>
                    <polyline id="Fill-37" fill="#2C2C37" points="50.8404667 476.770489 41.5715556 448.208133 34.9197778 450.738111 38.9396222 456.495311 41.5715556 457.523089 40.4648444 461.067689 50.8404667 476.770489"></polyline>
                    <path d="M50.3019111,478.080289 C50.3019111,488.321067 50.3019111,498.561844 50.3019111,508.802622 C50.3019111,509.505622 51.3954667,509.507267 51.3954667,508.802622 C51.3954667,498.561844 51.3954667,488.321067 51.3954667,478.080289 C51.3954667,477.376467 50.3019111,477.374822 50.3019111,478.080289" id="Fill-38" fill="#2C2C37"></path>
                    <path d="M29.5161333,433.789644 C29.5161333,433.789644 14.3592889,408.293356 29.5366889,401.359556 C33.1117111,387.631733 51.7843778,391.096578 56.3477111,392.386644 C60.9102222,393.676711 63.6145111,391.3342 63.6145111,391.3342 C65.1422,392.714711 65.2902,395.612222 65.2902,395.612222 L68.8175333,390.998733 C73.4951556,393.926667 76.0958444,401.463978 69.5345111,412.198911 L29.5161333,433.789644" id="Fill-39" fill="#663E26"></path>
                    <path d="M55.7146,448.219644 C55.7146,450.626289 53.7642889,452.5766 51.3584667,452.5766 L50.2690222,452.5766 C47.8632,452.5766 45.9128889,450.626289 45.9128889,448.219644 L45.9128889,440.829511 C45.9128889,438.422867 47.8632,436.472556 50.2690222,436.472556 L51.3584667,436.472556 C53.7642889,436.472556 55.7146,438.422867 55.7146,440.829511 L55.7146,448.219644" id="Fill-40" fill="#EC965D"></path>
                    <path d="M53.9254444,400.359733 L41.5411333,401.362022 C33.5030889,402.013222 27.5378667,409.357311 28.2186667,417.767 L28.5130222,421.388067 L28.4480667,421.457133 C28.194,421.441511 27.9374667,421.4374 27.6768222,421.458778 L27.5321111,421.470289 C24.3673778,421.726822 22.0182889,424.618578 22.2863333,427.929667 L22.2962,428.050533 C22.5642444,431.359156 25.345,433.833222 28.5080889,433.577511 L28.6577333,433.565178 C28.9233111,433.5438 29.1806667,433.497756 29.4339111,433.438556 L29.5079111,433.493644 C30.4641556,441.564578 37.3527333,447.515822 45.1646667,446.883533 L57.6106444,445.875489 C65.6495111,445.225111 71.6147333,437.8802 70.9339333,429.471333 L69.7137556,414.4074 C69.0329556,405.998533 61.9643111,399.708533 53.9254444,400.359733" id="Fill-41" fill="#FFCCA6"></path>
                    <path d="M33.6724667,425.839578 C33.0928,418.673911 30.8662222,409.779933 36.7854,404.396844 C39.7832222,401.671178 43.3138444,401.397378 47.0648222,401.093156 C50.1210222,400.845667 53.1722889,400.543089 56.2317778,400.351511 C59.5321778,400.144311 59.1235333,394.880444 55.8009333,395.037489 C52.4512,395.197 49.1146222,395.579333 45.7722889,395.849844 C41.0001111,396.236289 36.6735778,397.262422 33.041,400.774133 C28.9981333,404.681333 27.2961333,410.2264 27.7557556,415.907133 C28.0353111,419.354711 28.3148667,422.802289 28.5927778,426.250689 C28.8706889,429.676889 33.9503778,429.265778 33.6724667,425.839578" id="Fill-42" fill="#663E26"></path>
                    <path d="M47.6592889,423.7166 C47.7448,424.773978 47.1939111,425.681711 46.4284222,425.7442 C45.6629333,425.805867 44.9722667,424.998444 44.8875778,423.941067 C44.8012444,422.883689 45.3521333,421.975956 46.1184444,421.914289 C46.8839333,421.8518 47.5737778,422.659222 47.6592889,423.7166" id="Fill-43" fill="#131513"></path>
                    <path d="M63.2404,422.455311 C63.3259111,423.512689 62.7750222,424.420422 62.0087111,424.482089 C61.2432222,424.544578 60.5533778,423.737156 60.4678667,422.679778 C60.3823556,421.6224 60.9332444,420.714667 61.6987333,420.653 C62.4650444,420.590511 63.1548889,421.397933 63.2404,422.455311" id="Fill-44" fill="#131513"></path>
                    <path d="M64.6348889,415.493556 C62.6097556,413.2308 59.4433778,413.354956 57.8129111,415.975378 C57.4429111,416.5682 58.3794222,417.111689 58.7461333,416.521333 C60.0205778,414.474 62.3203333,414.526622 63.8702222,416.258222 C64.3356,416.778689 65.0986222,416.011556 64.6348889,415.493556" id="Fill-45" fill="#663E26"></path>
                    <path d="M43.1814667,417.8928 C44.4345333,415.917 46.6923556,415.599622 48.2874667,417.408511 C48.7487333,417.932267 49.5117556,417.164311 49.0521333,416.643844 C46.9916444,414.306267 43.8581556,414.806178 42.2474222,417.346844 C41.8733111,417.936378 42.809,418.479867 43.1814667,417.8928" id="Fill-46" fill="#663E26"></path>
                    <path d="M68.2263556,396.0332 C68.2263556,396.0332 69.1118889,404.080289 53.0563556,405.380222 C37.0024667,406.680156 31.0462889,406.292067 32.2368667,421.003267 C32.2368667,421.003267 27.3018889,399.668244 41.1588,396.519956 C55.0148889,393.371667 60.5928444,399.819533 68.2263556,396.0332" id="Fill-47" fill="#663E26"></path>
                    <path d="M59.5790444,435.369133 C59.5790444,436.934644 58.3095333,438.203333 56.7448444,438.203333 C55.1785111,438.203333 53.909,436.934644 53.909,435.369133 C53.909,433.8028 55.1785111,432.534111 56.7448444,432.534111 C58.3095333,432.534111 59.5790444,433.8028 59.5790444,435.369133" id="Fill-48" fill="#281412"></path>
                    <path d="M101.047822,350.194311 C101.047822,342.137356 94.2644889,335.665644 86.0981778,336.177889 C79.1454667,336.613667 73.4746,342.244244 72.9936,349.193667 C72.6803333,353.722467 74.5155333,357.831111 77.5807778,360.606111 C78.6472,361.5714 79.3534889,362.870511 79.4825778,364.302822 L79.5064222,364.577444 C79.5064222,366.333711 80.3360444,372.511889 87.0026222,372.511889 C93.6708444,372.511889 94.5004667,366.333711 94.5004667,364.577444 L94.535,364.189356 C94.6575111,362.822 95.3342,361.582089 96.3578667,360.666956 C99.2356444,358.095867 101.047822,354.357222 101.047822,350.194311" id="Fill-49" fill="#FADA56"></path>
                    <path d="M82.5091778,354.978822 L85.4256,367.533333 L88.5812889,367.533333 L91.4977111,354.978822 C91.9680222,353.355756 82.0388667,353.355756 82.5091778,354.978822 Z" id="Stroke-50" stroke="#FFFFFE"></path>
                    <path d="M87.0840222,378.200844 L86.9228667,378.200844 C82.5017778,378.200844 78.9177111,374.6176 78.9177111,370.196511 L78.9177111,367.137022 L95.0883556,367.137022 L95.0883556,370.196511 C95.0883556,374.6176 91.5051111,378.200844 87.0840222,378.200844" id="Fill-51" fill="#95948C"></path>
                    <path d="M78.9177111,367.799733 C84.3082,367.799733 89.6986889,367.799733 95.0883556,367.799733 C95.9418222,367.799733 95.9434667,366.474311 95.0883556,366.474311 C89.6986889,366.474311 84.3082,366.474311 78.9177111,366.474311 C78.0650667,366.474311 78.0634222,367.799733 78.9177111,367.799733" id="Fill-52" fill="#F5F3E4"></path>
                    <path d="M78.9177111,370.449756 C84.3082,370.449756 89.6986889,370.449756 95.0883556,370.449756 C95.9418222,370.449756 95.9434667,369.124333 95.0883556,369.124333 C89.6986889,369.124333 84.3082,369.124333 78.9177111,369.124333 C78.0650667,369.124333 78.0634222,370.449756 78.9177111,370.449756" id="Fill-53" fill="#F5F3E4"></path>
                    <path d="M73.9153111,333.397133 C73.3274222,332.808422 72.7387111,332.219711 72.1508222,331.631822 C71.3886222,330.870444 69.9949556,330.813711 69.2434444,331.631822 C68.4902889,332.4524 68.4310889,333.726022 69.2434444,334.538378 C69.8321556,335.127089 70.4200444,335.7158 71.0087556,336.303689 C71.7701333,337.065067 73.1646222,337.1218 73.9153111,336.303689 C74.6684667,335.483111 74.7284889,334.209489 73.9153111,333.397133" id="Fill-54" fill="#FADA56"></path>
                    <path d="M67.7757778,341.371044 C64.9481556,340.2372 62.1205333,339.104178 59.2929111,337.970333 C56.8377556,336.986133 55.7705111,340.960756 58.2001778,341.934267 C61.0278,343.068111 63.8554222,344.201133 66.6830444,345.334978 C69.1382,346.319178 70.2054444,342.344556 67.7757778,341.371044" id="Fill-55" fill="#FADA56"></path>
                    <path d="M102.968533,336.303689 C103.832689,335.439533 104.696844,334.575378 105.561,333.711222 C106.322378,332.949844 106.379111,331.555356 105.561,330.803844 C104.740422,330.050689 103.4668,329.991489 102.654444,330.803844 C101.790289,331.668822 100.925311,332.532978 100.061156,333.397133 C99.3006,334.158511 99.2430444,335.553 100.061156,336.303689 C100.881733,337.056844 102.156178,337.116044 102.968533,336.303689" id="Fill-56" fill="#FADA56"></path>
                    <path d="M107.387978,345.334978 C110.260822,344.379556 113.133667,343.423311 116.005689,342.467889 C118.504422,341.636622 117.433067,337.665289 114.912956,338.503956 C112.040933,339.459378 109.167267,340.4148 106.295244,341.371044 C103.797333,342.202311 104.867867,346.173644 107.387978,345.334978" id="Fill-57" fill="#FADA56"></path>
                    <path d="M99.4477778,363.312044 C100.0554,363.918844 100.663022,364.526467 101.270644,365.134089 C101.699022,365.562467 102.363378,364.898111 101.935822,364.469733 C101.327378,363.862111 100.720578,363.254489 100.112956,362.646867 C99.6845778,362.218489 99.0202222,362.883667 99.4477778,363.312044" id="Fill-58" fill="#FFFFFE"></path>
                    <path d="M106.361844,359.169689 C108.036711,359.727156 109.7124,360.284622 111.387267,360.842089 C113.903267,361.679111 114.982844,357.710244 112.480822,356.877333 C110.805133,356.319867 109.130267,355.763222 107.454578,355.205756 C104.938578,354.368733 103.859,358.3376 106.361844,359.169689" id="Fill-59" fill="#FADA56"></path>
                    <path d="M71.1690889,364.237044 C70.3049333,365.1012 69.4407778,365.965356 68.5766222,366.829511 C67.8152444,367.590889 67.7585111,368.985378 68.5766222,369.736067 C69.3972,370.489222 70.6708222,370.548422 71.4831778,369.736067 C72.3473333,368.871911 73.2114889,368.007756 74.0764667,367.1436 C74.8378444,366.382222 74.8945778,364.987733 74.0764667,364.237044 C73.2558889,363.483889 71.9814444,363.424689 71.1690889,364.237044" id="Fill-60" fill="#FADA56"></path>
                    <path d="M66.7496444,355.205756 C64.6307778,355.9104 62.5127333,356.615044 60.3946889,357.319689 C57.8967778,358.150956 58.9673111,362.122289 61.4874222,361.283622 C63.6054667,360.578978 65.7243333,359.874333 67.8423778,359.169689 C70.3402889,358.338422 69.2697556,354.367089 66.7496444,355.205756" id="Fill-61" fill="#FADA56"></path>
                    <path d="M89.0442,330.470022 C89.0442,327.447533 89.0442,324.424222 89.0442,321.401733 C89.0442,318.756644 84.9330889,318.751711 84.9330889,321.401733 C84.9330889,324.424222 84.9330889,327.447533 84.9330889,330.470022 C84.9330889,333.115111 89.0442,333.119222 89.0442,330.470022" id="Fill-62" fill="#FADA56"></path>
                    <path d="M164.4576,642.299444 C164.4576,642.299444 163.1848,636.418911 173.733911,631.827622 L178.301356,636.337511 L171.485133,645.1468 L164.4576,642.299444" id="Fill-63" fill="#BDB2AC"></path>
                    <path d="M116.521222,642.680956 C116.521222,642.680956 116.521222,636.664756 127.802933,634.408578 L131.312178,639.7818 L122.789022,646.950756 L116.521222,642.680956" id="Fill-64" fill="#BDB2AC"></path>
                    <path d="M118.605556,651.630022 L117.942022,652.833756 L109.817644,648.256444 L115.120156,638.629044 C115.814111,637.367756 117.399356,636.908956 118.660644,637.602911 L127.773333,642.724533 C129.035444,643.418489 129.494244,645.004556 128.799467,646.265844 L128.773978,646.311889 C128.0792,647.573178 128.538822,649.158422 129.800111,649.8532 L132.544689,650.062044 C136.588378,650.062044 139.866578,653.340244 139.866578,657.384756 L139.866578,658.393622 L133.012533,658.393622 C127.474867,658.393622 122.220044,655.941756 118.661467,651.697444 L118.605556,651.630022" id="Fill-65" fill="#58281F"></path>
                    <path d="M196.690356,653.379711 L196.690356,652.370844 C196.690356,648.327156 193.411333,645.048133 189.368467,645.048133 L183.145067,645.048133 C181.705356,645.048133 180.5378,643.8814 180.5378,642.441689 L180.5378,642.389067 C180.5378,640.948533 179.371067,639.7818 177.931356,639.7818 L165.238711,639.7818 C163.798178,639.7818 162.631444,640.948533 162.631444,642.389067 L162.631444,653.379711 L174.196822,653.379711 L174.196822,652.005778 L177.087756,653.379711 L196.690356,653.379711" id="Fill-66" fill="#58281F"></path>
                    <path d="M138.874156,555.046867 C142.241978,553.403244 139.414356,554.773067 138.649689,555.121689 C137.105556,555.827156 135.5384,556.48 133.960556,557.105711 C132.365444,557.738 130.7432,558.292178 129.102044,558.791267 C129.143978,558.778111 129.567422,560.180822 130.964378,559.9136 C130.382244,560.0246 127.762644,559.910311 129.870822,560.175067 C130.238356,560.221933 132.497822,561.724133 131.230778,560.725133 C130.688933,560.2984 130.203,559.794378 129.716244,559.308444 C128.586511,558.181178 128.091533,557.511067 126.816267,555.860044 C125.522089,554.184356 124.284644,552.456867 123.109689,550.694844 C117.724133,542.623089 105.133444,550.854356 110.523933,558.933511 C114.520756,564.924222 119.501778,572.847978 126.797356,574.900244 C131.262022,576.155778 133.817489,573.210578 137.947511,571.674667 C141.081,570.5104 144.111711,569.097822 147.113644,567.632622 C150.803778,565.830311 151.320133,560.327178 149.285956,557.220822 C146.832444,553.471489 142.555244,553.250311 138.874156,555.046867" id="Fill-67" fill="#202128"></path>
                    <path d="M121.635444,548.545556 C121.517044,554.673578 106.272222,558.098133 103.188889,549.792867 C102.113422,546.895356 101.741778,544.037311 103.912444,542.814667 C106.560822,541.323156 104.799622,548.936111 106.803378,548.594889 C106.803378,548.594889 105.366956,540.7772 107.163511,539.754356 C110.306044,537.964378 110.006756,542.906756 110.935867,545.208156 L111.719444,548.267644 C111.719444,548.267644 121.698756,545.258311 121.635444,548.545556" id="Fill-68" fill="#F1AC78"></path>
                    <path d="M184.107067,608.156667 C175.531289,601.993289 161.219689,596.878244 158.097711,595.801956 C157.096244,595.324244 155.978844,595.0488 154.794844,595.0488 L130.392933,595.0488 C126.146978,595.0488 122.705156,598.490622 122.705156,602.736578 C122.705156,605.098 123.7724,607.209467 125.448089,608.619578 C129.531244,615.31 133.595489,622.729733 134.648756,625.846778 C132.722289,628.392378 120.869133,634.022133 120.869133,634.022133 C119.367756,643.580467 128.547867,646.950756 128.547867,646.950756 C128.791244,646.852089 134.562422,644.491489 140.398556,641.034867 C146.650733,637.331578 149.941267,634.448867 149.880422,626.081933 C149.858222,622.922133 147.855289,617.6706 143.932467,610.425178 L154.345911,610.425178 C159.010378,612.086067 168.0392,615.660267 173.859711,619.379178 L165.654756,635.507067 C169.919622,645.1468 180.135733,641.009378 180.135733,641.009378 L187.245489,626.466733 C191.331111,620.551667 189.922644,612.338489 184.107067,608.156667" id="Fill-69" fill="#202128"></path>
                    <path d="M173.659911,619.095511 L161.696578,601.046911 L125.099467,597.220289 C123.7058,598.611489 122.842467,600.535489 122.842467,602.660933 C122.842467,605.023178 123.909711,607.133822 125.586222,608.543933 C127.580111,611.810622 131.202822,618.2774 131.202822,618.2774 C139.554133,611.409378 146.925356,616.287622 146.925356,616.287622 L143.8708,610.349533 L154.484044,610.349533 C159.060533,611.979178 167.833644,615.452244 173.659911,619.095511" id="Fill-70" fill="#131513"></path>
                    <path d="M161.758244,601.122556 L176.1126,565.336156 C173.368844,555.075644 159.806289,553.840667 150.386911,554.283844 C144.878022,554.542844 140.026089,557.983022 137.9878,563.107933 L123.737867,598.951889 C123.737867,598.951889 142.9014,616.784244 161.758244,601.122556" id="Fill-71" fill="#202128"></path>
                    <path d="M167.2326,568.902133 C173.690333,570.766111 180.148889,572.630089 186.606622,574.494067 C190.566444,575.636133 194.712911,573.104511 195.858267,569.240889 C197.036511,565.265444 198.213933,561.29 199.393,557.314556 C202.149089,548.0144 187.636867,544.041422 184.888178,553.316089 C183.709933,557.291533 182.531689,561.266978 181.353444,565.2416 C184.436778,563.491089 187.520933,561.739756 190.605089,559.989244 C184.147356,558.125267 177.6888,556.261289 171.231067,554.398133 C161.913644,551.708644 157.934911,566.219222 167.2326,568.902133" id="Fill-72" fill="#202128"></path>
                    <path d="M185.388911,551.9142 C188.661356,557.096667 203.497533,553.126156 204.3066,542.527711 C204.516267,539.783956 204.335378,535.132644 200.4512,535.832356 C197.459956,536.370911 200.467644,542.806444 198.104578,544.281511 C198.104578,544.281511 197.501889,536.600311 193.918644,537.026222 C190.333756,537.452956 191.849111,541.981756 192.816867,543.520956 L192.870311,546.944689 C192.870311,546.944689 183.633467,549.134267 185.388911,551.9142" id="Fill-73" fill="#F1AC78"></path>
                    <path d="M179.140844,559.735178 C179.140844,564.469533 169.361333,568.307667 157.298511,568.307667 C145.234867,568.307667 135.454533,564.469533 135.454533,559.735178 C135.454533,555.000822 145.234867,551.162689 157.298511,551.162689 C169.361333,551.162689 179.140844,555.000822 179.140844,559.735178" id="Fill-74" fill="#202128"></path>
                    <polyline id="Fill-75" fill="#FFFFFE" points="152.416156 555.218711 156.039689 582.907867 170.789533 556.826978 152.416156 555.218711"></polyline>
                    <path d="M170.135867,559.794378 L170.047067,559.737644 C164.870356,556.456156 158.174178,555.871556 151.856222,558.149111 L151.755089,558.185289 L152.767244,565.755489 L160.453378,561.382911 L166.105333,566.922222 L170.135867,559.794378" id="Fill-76" fill="#A59A95"></path>
                    <polyline id="Fill-77" fill="#0E0D0C" points="159.050667 577.570822 156.032289 582.909511 155.289822 577.241111 161.594622 556.023667 159.050667 577.570822"></polyline>
                    <path d="M159.975667,563.667867 L160.007733,563.671156 C160.938489,563.752556 161.884867,563.209067 162.332156,562.335044 L164.1098,558.867733 C164.784844,557.551356 164.053889,556.108356 162.651178,555.985844 L160.526556,555.7992 C159.123844,555.676689 157.837067,556.943733 157.956289,558.329178 L158.272022,561.979844 C158.351778,562.899911 159.045733,563.586467 159.975667,563.667867" id="Fill-78" fill="#0E0D0C"></path>
                    <path d="M170.789533,556.826978 L170.700733,556.770244 C165.524022,553.488756 158.827844,552.904156 152.509067,555.181711 L152.407933,555.217889 L153.420911,562.788089 L160.995222,558.963111 L166.758178,563.954822 L170.789533,556.826978" id="Fill-79" fill="#FFFFFE"></path>
                    <polyline id="Fill-80" fill="#2C2C37" points="156.032289 582.909511 171.134867 555.143889 177.161756 558.644911 172.054111 563.663756 169.221556 564.462133 169.595667 568.1054 156.032289 582.909511"></polyline>
                    <polyline id="Fill-81" fill="#2C2C37" points="156.032289 582.910333 152.666933 553.529044 145.519356 555.479356 148.342044 561.589289 150.7528 562.847289 148.921711 566.297333 156.032289 582.910333"></polyline>
                    <path d="M143.259889,543.688689 C143.259889,543.688689 132.439444,516.996889 148.023022,512.561 C153.463667,499.906178 170.881622,505.964311 175.073311,507.8694 C179.263356,509.775311 182.2028,507.922844 182.2028,507.922844 C183.466556,509.471911 183.185356,512.274044 183.185356,512.274044 L187.246311,508.361911 C191.308089,511.856356 192.701756,519.471778 184.833911,528.817156 L143.259889,543.688689" id="Fill-82" fill="#663E26"></path>
                    <path d="M171.581333,515.169089 L159.547289,514.319733 C151.735356,513.768844 144.934756,519.9462 144.358378,528.118267 L144.110889,531.637378 L144.037711,531.694111 C143.7968,531.641489 143.550956,531.6012 143.297711,531.583111 L143.157111,531.573244 C140.081178,531.356178 137.404022,533.788311 137.177089,537.005667 L137.168867,537.123244 C136.941933,540.338956 139.249089,543.120533 142.323378,543.3376 L142.467267,543.348289 C142.726267,543.366378 142.981156,543.3598 143.231933,543.340067 L143.294422,543.4042 C143.032133,551.290956 148.773711,558.0118 156.366111,558.547889 L168.461,559.400533 C176.272933,559.952244 183.072711,553.774067 183.649089,545.602822 L184.6818,530.963156 C185.258178,522.791911 179.393267,515.719978 171.581333,515.169089" id="Fill-83" fill="#FFCCA6"></path>
                    <path d="M148.412756,536.665267 C148.904444,529.702689 148.067422,520.839133 154.537489,516.537267 C157.814044,514.3592 161.242711,514.612444 164.888444,514.8698 C167.857489,515.079467 170.831467,515.234867 173.7964,515.4988 C176.994844,515.782467 177.373067,510.669889 174.159822,510.335244 C170.921089,509.997311 167.663444,509.876444 164.414844,509.647044 C159.776689,509.3198 155.473178,509.672533 151.473067,512.511667 C147.020733,515.670644 144.575444,520.744578 144.185711,526.264978 C143.948911,529.615533 143.712933,532.966089 143.476956,536.316644 C143.2418,539.646644 148.1776,539.995267 148.412756,536.665267" id="Fill-84" fill="#663E26"></path>
                    <path d="M163.667444,537.4324 C163.594267,538.460178 162.932378,539.251156 162.188267,539.198533 C161.444978,539.145911 160.899844,538.270244 160.9722,537.242467 C161.044556,536.214689 161.707267,535.423711 162.450556,535.476333 C163.194667,535.528956 163.7398,536.404622 163.667444,537.4324" id="Fill-85" fill="#131513"></path>
                    <path d="M177.290844,537.742378 C177.217667,538.770156 176.555778,539.560311 175.811667,539.507689 C175.068378,539.455067 174.524067,538.5794 174.596422,537.552444 C174.6696,536.524667 175.330667,535.733689 176.0756,535.786311 C176.818889,535.838933 177.3632,536.7146 177.290844,537.742378" id="Fill-86" fill="#131513"></path>
                    <path d="M185.942267,513.107778 C185.942267,513.107778 185.615022,520.961644 170.012533,519.861511 C154.411689,518.760556 148.750689,517.516533 147.742644,531.813333 C147.742644,531.813333 146.125333,510.610689 159.887689,509.6158 C173.649222,508.620911 178.061267,515.626244 185.942267,513.107778" id="Fill-87" fill="#663E26"></path>
                    <path d="M165.215689,535.565133 C163.356644,534.909822 161.4976,534.254511 159.639378,533.5992 C158.716844,533.274422 158.319711,534.739622 159.235667,535.062756 C161.094711,535.718067 162.953756,536.373378 164.811978,537.028689 C165.734511,537.353467 166.131644,535.888267 165.215689,535.565133" id="Fill-88" fill="#663E26"></path>
                    <path d="M174.208333,537.5434 C176.101089,536.907 177.993844,536.269778 179.8866,535.633378 C180.806667,535.324222 180.412,533.8582 179.482889,534.170644 C177.590133,534.807044 175.6982,535.443444 173.804622,536.080667 C172.884556,536.389822 173.2784,537.855844 174.208333,537.5434" id="Fill-89" fill="#663E26"></path>
                    <path d="M155.513467,582.762333 C152.726956,590.929467 149.941267,599.0966 147.1564,607.262911 C146.927822,607.930556 147.984378,608.217511 148.210489,607.553978 C150.997,599.386844 153.781867,591.220533 156.567556,583.0534 C156.794489,582.385756 155.738756,582.099622 155.513467,582.762333" id="Fill-90" fill="#2C2C37"></path>
                    <path d="M162.1562,550.457222 C166.301022,550.457222 170.445022,550.457222 174.589844,550.457222 C175.199933,550.457222 175.200756,549.5092 174.589844,549.5092 C170.445022,549.5092 166.301022,549.5092 162.1562,549.5092 C161.546111,549.5092 161.545289,550.457222 162.1562,550.457222" id="Fill-91" fill="#663E26"></path>
                    <path d="M240.129178,337.3734 L242.707667,339.932156 C243.012711,340.235556 243.533178,340.017667 243.529889,339.587644 C243.502756,337.022311 243.1344,330.798911 240.319111,327.511667 L218.483356,326.530756 C215.3844,329.5516 214.4594,335.717444 214.203689,338.269622 C214.160111,338.698 214.6592,338.961933 214.991378,338.687311 L217.788578,336.370289 C215.127867,347.841933 224.975622,362.8516 227.785978,362.9774 C230.596333,363.104022 241.7506,349.038267 240.129178,337.3734" id="Fill-92" fill="#F8CA23"></path>
                    <path d="M233.674733,333.0962 C233.260333,342.314133 228.387844,349.582578 228.387844,349.582578 C228.387844,349.582578 224.185467,341.906311 224.599867,332.688378 C225.014267,323.470444 227.381444,316.088533 229.887578,316.201178 C232.393711,316.313822 234.088311,323.878267 233.674733,333.0962" id="Fill-93" fill="#FBDE62"></path>
                    <path d="M247.243867,325.335244 C248.530644,324.159467 249.251733,323.500044 250.537689,322.324267 L251.864756,292.789222 C252.164867,286.116067 246.998022,280.463289 240.324867,280.164 L240.080667,280.152489 C233.407511,279.8532 227.754733,285.020044 227.455444,291.6932 L226.144822,320.848378 C227.457089,322.283156 228.206956,323.103733 229.519222,324.538511 L247.243867,325.335244" id="Fill-94" fill="#902326"></path>
                    <path d="M245.219556,325.243978 C246.507156,324.0682 247.228244,323.408778 248.5142,322.233 L249.841267,292.698778 C250.141378,286.025622 244.973711,280.372844 238.301378,280.072733 L238.057178,280.062044 C231.384022,279.761933 225.731244,284.928778 225.431133,291.601933 L224.121333,320.757111 C225.4336,322.192711 226.183467,323.012467 227.494911,324.448067 L245.219556,325.243978" id="Fill-95" fill="#C22C2B"></path>
                    <path d="M231.127489,324.610867 C232.413444,323.435089 233.135356,322.775667 234.421311,321.599889 L235.748378,292.065667 C236.048489,285.392511 230.881644,279.739733 224.208489,279.439622 L223.964289,279.428933 C217.291133,279.128822 211.638356,284.295667 211.338244,290.968822 L210.028444,320.124 C211.340711,321.5596 212.089756,322.379356 213.402022,323.814956 L231.127489,324.610867" id="Fill-96" fill="#902326"></path>
                    <path d="M229.104,324.520422 C230.389956,323.344644 231.111867,322.685222 232.397822,321.509444 L233.724889,291.9744 C234.024178,285.301244 228.858156,279.648467 222.185,279.348356 L221.9408,279.337667 C215.267644,279.038378 209.614867,284.2044 209.314756,290.878378 L208.004956,320.032733 C209.317222,321.468333 210.066267,322.288089 211.378533,323.723689 L229.104,324.520422" id="Fill-97" fill="#C22C2B"></path>
                    <path d="M251.868044,309.138289 L208.510622,307.189622 C206.978,307.121378 205.799756,305.645489 205.878689,303.893333 L205.881156,303.8292 C205.960089,302.077867 207.265778,300.712978 208.7984,300.782044 L252.155822,302.729889 C253.688444,302.798956 254.866689,304.274844 254.787756,306.026178 L254.785289,306.090311 C254.706356,307.842467 253.399844,309.206533 251.868044,309.138289" id="Fill-98" fill="#94885E"></path>
                    <path d="M251.868044,310.451378 L208.510622,308.503533 C206.978,308.434467 205.799756,306.958578 205.878689,305.206422 L205.881156,305.142289 C205.960089,303.390956 207.265778,302.026067 208.7984,302.095133 L252.155822,304.042978 C253.688444,304.112044 254.866689,305.587933 254.787756,307.340089 L254.785289,307.4034 C254.706356,309.155556 253.399844,310.519622 251.868044,310.451378" id="Fill-99" fill="#B3A672"></path>
                    <path d="M217.378289,309.865956 L213.397089,309.687533 C212.460578,309.6456 211.737022,308.852156 211.778133,307.916467 L211.957378,303.935267 C211.999311,302.999578 212.792756,302.274378 213.727622,302.316311 L217.708822,302.495556 C218.645333,302.537489 219.370533,303.330933 219.327778,304.266622 L219.149356,308.247822 C219.1066,309.183511 218.3148,309.907889 217.378289,309.865956 Z" id="Stroke-100" stroke="#FBE84F" stroke-width="1.962" fill="#D8D8D8"></path>
                    <path d="M244.623444,327.704889 L213.767911,326.318622 C212.410422,326.257778 211.359622,325.108311 211.420467,323.750822 L211.422111,323.726156 L247.192889,325.332778 L247.191244,325.357444 C247.129578,326.714933 245.980111,327.765733 244.623444,327.704889" id="Fill-101" fill="#B1C6AC"></path>
                    <path d="M296.226933,404.707644 L296.869089,403.929 C299.441822,400.808667 298.997822,396.194356 295.877489,393.621622 L291.076533,389.663444 C289.965711,388.747489 289.807844,387.104689 290.722978,385.993044 L290.756689,385.952756 C291.672644,384.841933 291.514778,383.198311 290.403133,382.282356 L280.609644,374.208133 C279.499644,373.292178 277.856022,373.450044 276.940067,374.560867 L269.947889,383.041267 L278.872289,390.398511 L279.745489,389.338667 L281.102978,392.237822 L296.226933,404.707644" id="Fill-102" fill="#58281F"></path>
                    <path d="M230.729533,405.052156 L231.720311,404.863044 C235.692467,404.104956 238.298089,400.270111 237.54,396.297956 L236.374089,390.185556 C236.1044,388.771333 237.031867,387.406444 238.446089,387.135933 L238.497889,387.126067 C239.912111,386.856378 240.8404,385.491489 240.570711,384.077267 L238.190378,371.609089 C237.920689,370.194867 236.5558,369.266578 235.141578,369.536267 L224.3458,371.596756 L226.513178,382.9574 L227.863267,382.700044 L227.055022,385.796533 L230.729533,405.052156" id="Fill-103" fill="#58281F"></path>
                    <path d="M295.056089,344.576067 C290.202511,337.080689 283.889489,333.413578 278.197244,331.673756 C276.645711,328.687444 273.531133,326.645044 269.933911,326.645044 L245.004133,326.645044 C239.861133,326.645044 235.690822,330.813711 235.690822,335.956711 L235.690822,336.906378 C235.690822,341.139178 238.518444,344.7068 242.384533,345.839 C245.550911,347.874 250.383933,352.132289 249.751644,358.904111 C248.945867,367.530867 237.767756,370.0592 237.3402,370.152111 L240.438333,385.360756 C248.931067,383.6308 263.704756,376.4158 265.206133,360.347111 C265.710978,354.931956 264.722667,350.226378 262.886644,346.218867 L269.933911,346.218867 C270.1518,346.218867 270.368044,346.211467 270.582644,346.195844 C271.645778,346.121844 272.715489,346.184333 273.728467,346.516511 C276.526489,347.432467 279.624622,349.299733 282.0288,353.011244 C287.731733,361.819711 279.362333,372.409933 279.029333,372.822689 L291.009933,382.690178 C291.666067,381.893444 306.956933,362.953556 295.056089,344.576067" id="Fill-104" fill="#202128"></path>
                    <path d="M263.088089,346.218867 L270.135356,346.218867 C270.354067,346.218867 270.569489,346.211467 270.784089,346.195844 C271.848044,346.121844 272.916933,346.184333 273.929911,346.516511 C276.729578,347.432467 279.826889,349.299733 282.230244,353.011244 C287.933178,361.819711 279.563778,372.409933 279.2316,372.822689 L291.211378,382.690178 C291.868333,381.893444 307.158378,362.953556 295.257533,344.576067 C290.404778,337.080689 284.092578,333.413578 278.398689,331.673756 C276.847978,328.687444 273.732578,326.645044 270.135356,326.645044 C270.135356,326.645044 234.186156,319.759756 245.205578,326.645044 C256.224178,333.529511 263.088089,346.218867 263.088089,346.218867" id="Fill-105" fill="#131513"></path>
                    <path d="M269.653533,326.595711 L244.723756,326.595711 C240.014889,326.595711 236.133178,330.093444 235.509111,334.630467 L235.728644,337.811644 C235.728644,337.811644 251.679756,346.147333 278.249044,334.878778 L278.027044,331.6606 L277.916867,331.624422 C276.365333,328.638933 273.250756,326.595711 269.653533,326.595711" id="Fill-106" fill="#131513"></path>
                    <path d="M265.724133,291.052689 C265.9782,291.142311 266.230622,291.240156 266.482222,291.338822 C267.660467,291.797622 265.172422,290.761622 266.696,291.425156 C267.251,291.666067 267.796133,291.925889 268.342089,292.185711 C271.270022,293.576911 274.047489,295.259178 276.719711,297.086156 C278.191489,298.091733 279.552267,299.216533 280.8966,300.384911 C281.819133,301.1874 282.686578,302.049911 283.551556,302.912422 C283.8418,303.215 284.1304,303.517578 284.419822,303.820978 C285.4106,305.458022 285.945867,304.994289 286.027267,302.428956 C282.692333,304.994289 278.091178,306.772756 274.191378,308.235489 C267.386667,310.788489 270.331867,321.790644 277.216333,319.208044 C280.587444,317.943467 283.872222,316.493889 287.080533,314.860956 C289.578444,313.5898 292.482533,312.255333 294.280733,310.046844 C299.473067,303.671333 294.663889,297.740644 289.834156,293.148533 C283.914156,287.5196 276.485378,282.800044 268.748267,280.080133 C261.807889,277.638956 258.848711,288.635356 265.724133,291.052689" id="Fill-107" fill="#202128"></path>
                    <path d="M274.553156,307.479044 L273.303378,300.616778 C275.222444,297.364067 277.204,291.313333 273.846867,282.401267 L273.840289,282.382356 C273.539356,281.543689 274.489844,280.786422 275.290689,281.176978 L277.771333,282.387289 C279.060578,283.015467 280.021756,284.187133 280.325978,285.589022 C283.382178,299.719733 274.9618,307.1296 274.553156,307.479044" id="Fill-108" fill="#94885E"></path>
                    <path d="M273.8222,308.126133 L273.302556,300.5732 C274.048311,299.302044 274.803111,297.618133 275.247111,295.534622 L280.440267,296.642978 C278.942178,303.663933 275.158311,306.998867 273.8222,308.126133" id="Fill-109" fill="#B3A672"></path>
                    <path d="M277.770511,332.6522 C251.201222,343.920756 235.250111,335.584244 235.250111,335.584244 L232.346022,293.479067 C231.8346,286.0618 237.432289,279.634489 244.848733,279.123067 L260.511244,278.042667 C267.927689,277.531244 274.355,283.128933 274.866422,290.5462 L277.770511,332.6522" id="Fill-110" fill="#202128"></path>
                    <path d="M276.240356,310.434111 C276.024933,310.329689 275.8054,310.219511 275.5834,310.095356 C275.5834,310.095356 273.166889,306.673267 272.357822,308.492022 C271.657289,310.069044 272.102933,311.318 272.957222,312.278356 C272.532133,312.554622 272.165422,312.872822 271.848867,313.221444 C269.667511,313.667911 267.566733,314.017356 267.401467,315.588622 C267.217289,317.339133 268.7162,317.893311 270.370511,317.9854 C270.386133,318.134222 270.409156,318.282222 270.433822,318.428578 C270.232378,318.446667 270.028467,318.462289 269.820444,318.472156 C265.969978,318.649756 268.378267,323.023156 272.044556,322.823356 C269.597622,324.891244 271.581644,328.226178 277.147267,323.583089 L276.240356,310.434111" id="Fill-111" fill="#131513"></path>
                    <path d="M278.427467,308.302089 C277.960444,307.663222 276.781378,307.345844 275.5834,306.674089 C275.5834,306.674089 273.167711,303.252822 272.357822,305.071578 C271.514222,306.969267 272.321644,308.399111 273.5188,309.413733 C270.878644,310.147978 267.609489,310.191556 267.401467,312.168178 C267.005978,315.930667 274.3772,314.166178 274.3772,314.166178 C274.3772,314.166178 272.3052,314.937422 269.820444,315.051711 C265.969978,315.229311 268.378267,319.602711 272.044556,319.402911 C269.535133,321.5226 271.682778,324.9784 277.573178,319.800044 C279.831,317.8152 280.138511,314.935778 280.108911,312.6648 C280.088356,311.119022 279.442911,309.210644 278.427467,308.302089" id="Fill-112" fill="#F1AC78"></path>
                    <path d="M251.146133,320.0278 C251.003067,318.662089 249.398089,318.219733 247.549733,317.834111 C247.147667,317.251156 246.583622,316.760289 245.853489,316.404267 C246.531,315.489956 246.816311,314.339667 246.189778,312.9312 C245.380711,311.112444 242.965022,314.534533 242.965022,314.534533 C242.396867,314.852733 241.836111,315.090356 241.351,315.3214 C238.741267,314.700622 236.197311,313.817556 233.7364,312.745378 L234.603022,325.301533 C236.6668,325.914089 238.562022,326.367956 240.053533,326.661489 C240.317467,327.011756 240.620044,327.348044 240.974422,327.659667 C246.864822,332.838844 249.012467,329.383044 246.503044,327.262533 C250.169333,327.462333 252.578444,323.088933 248.727156,322.911333 C248.452533,322.899 248.184489,322.8768 247.9222,322.850489 C247.974822,322.711533 248.020867,322.570933 248.064444,322.429511 C249.763156,322.356333 251.334422,321.8186 251.146133,320.0278" id="Fill-113" fill="#131513"></path>
                    <path d="M235.415378,283.065622 C227.359244,288.686333 220.100667,296.467022 215.958311,305.410333 C210.911511,316.303956 232.868133,322.624378 239.934311,323.773022 C247.109844,324.938933 250.187422,313.975422 242.958444,312.799644 C239.0644,312.167356 235.279711,310.951289 231.693178,309.315067 C230.046267,308.563556 228.457733,307.692822 226.917711,306.743978 C227.059133,306.830311 225.188578,305.437467 225.911311,306.0492 C224.934511,305.222867 226.241844,306.603378 226.309267,307.000511 C226.309267,308.008556 226.309267,309.0166 226.309267,310.025467 C227.170133,305.850222 232.443867,300.773 235.580644,297.685556 C237.017889,296.269689 238.5464,294.946733 240.110267,293.674756 C241.146267,292.8328 239.505111,294.107244 240.685822,293.231578 C240.842044,293.115644 240.999089,293.002178 241.159422,292.891178 C247.129578,288.724978 241.450489,278.855022 235.415378,283.065622" id="Fill-114" fill="#202128"></path>
                    <path d="M238.8498,313.063578 C239.317644,312.424711 240.496711,312.107333 241.694689,311.435578 C241.694689,311.435578 244.110378,308.014311 244.919444,309.833067 C245.763867,311.730756 244.955622,313.1606 243.759289,314.175222 C246.399444,314.910289 249.6686,314.953044 249.8758,316.929667 C250.271289,320.692156 242.900889,318.927667 242.900889,318.927667 C242.900889,318.927667 244.972889,319.698911 247.457644,319.8132 C251.308933,319.9908 248.899822,324.3642 245.232711,324.1644 C247.742133,326.284089 245.594489,329.739889 239.704911,324.561533 C237.447089,322.576689 237.138756,319.698089 237.168356,317.426289 C237.189733,315.881333 237.834356,313.972133 238.8498,313.063578" id="Fill-115" fill="#F1AC78"></path>
                    <path d="M233.930444,309.221333 L232.679844,302.358244 C234.599733,299.106356 236.580467,293.055622 233.223333,284.143556 C232.987356,283.515378 233.300622,282.811556 233.920578,282.5542 L236.505644,281.478733 C237.165889,281.203289 237.915756,281.538756 238.169822,282.208044 C244.795289,299.6704 234.385956,308.830778 233.930444,309.221333" id="Fill-116" fill="#94885E"></path>
                    <path d="M233.199489,309.8676 L232.679022,302.314667 C233.4256,301.044333 234.179578,299.3596 234.6244,297.276089 L239.817556,298.384444 C238.319467,305.406222 234.5356,308.740333 233.199489,309.8676" id="Fill-117" fill="#B3A672"></path>
                    <polyline id="Fill-118" fill="#FFFFFE" points="246.308178 281.090644 256.949378 307.424778 264.724311 280.080133 246.308178 281.090644"></polyline>
                    <path d="M264.843533,283.047533 L264.7424,283.0056 C258.828978,280.547978 252.118822,280.917156 246.510444,284.008711 L246.420822,284.058044 L249.3504,291.254956 L255.762911,285.940933 L262.718911,290.521533 L264.843533,283.047533" id="Fill-119" fill="#A59A95"></path>
                    <polyline id="Fill-120" fill="#0E0D0C" points="258.532978 301.830378 256.941156 307.427244 254.763911 302.035933 255.508844 280.587444 258.532978 301.830378"></polyline>
                    <path d="M255.879667,288.223422 L255.911733,288.221778 C256.844956,288.1708 257.632644,287.511378 257.848067,286.602822 L258.702356,282.992444 C259.025489,281.6218 257.940978,280.325156 256.534978,280.402444 L254.4046,280.5192 C252.9986,280.596489 252.062911,282.004133 252.534867,283.3312 L253.778067,286.825644 C254.091333,287.706244 254.946444,288.275222 255.879667,288.223422" id="Fill-121" fill="#0E0D0C"></path>
                    <path d="M264.724311,280.080133 L264.623178,280.0382 C258.708933,277.580578 251.998778,277.949756 246.3904,281.041311 L246.300778,281.090644 L249.230356,288.287556 L255.673289,283.520311 L262.599689,287.553311 L264.724311,280.080133" id="Fill-122" fill="#FFFFFE"></path>
                    <polyline id="Fill-123" fill="#2C2C37" points="256.941156 307.427244 264.632222 278.400333 271.434467 280.950867 267.714733 286.530467 265.142822 287.701311 266.441933 291.180133 256.941156 307.427244"></polyline>
                    <polyline id="Fill-124" fill="#2C2C37" points="256.941156 307.428067 246.121533 279.4166 239.617756 282.307533 243.947578 287.835333 246.631311 288.717578 245.721111 292.318089 256.941156 307.428067"></polyline>
                    <path d="M256.474956,308.7354 C256.978156,318.035556 257.482178,327.336533 257.9862,336.636689 C258.024022,337.3364 259.1184,337.341333 259.079756,336.636689 C258.575733,327.336533 258.071711,318.035556 257.568511,308.7354 C257.529867,308.035689 256.436311,308.030756 256.474956,308.7354" id="Fill-125" fill="#2C2C37"></path>
                    <path d="M233.772578,264.266333 C233.772578,264.266333 218.615733,238.770044 233.793956,231.836244 C237.368156,218.108422 256.041644,221.573267 260.604156,222.863333 C265.166667,224.1534 267.871778,221.811711 267.871778,221.811711 C269.397822,223.192222 269.547467,226.088911 269.547467,226.088911 L273.0748,221.475422 C277.7516,224.403356 280.352289,231.940667 273.790956,242.6756 L233.772578,264.266333" id="Fill-126" fill="#663E26"></path>
                    <path d="M259.971867,278.697156 C259.971867,281.102978 258.021556,283.053289 255.614911,283.053289 L254.526289,283.053289 C252.119644,283.053289 250.169333,281.102978 250.169333,278.697156 L250.169333,271.3062 C250.169333,268.899556 252.119644,266.949244 254.526289,266.949244 L255.614911,266.949244 C258.021556,266.949244 259.971867,268.899556 259.971867,271.3062 L259.971867,278.697156" id="Fill-127" fill="#EC965D"></path>
                    <path d="M258.182711,230.836422 L245.7984,231.838711 C237.759533,232.489911 231.795133,239.834 232.475933,248.243689 L232.769467,251.864756 L232.704511,251.933822 C232.450444,251.9182 232.193911,251.914089 231.934089,251.935467 L231.788556,251.946978 C228.624644,252.203511 226.275556,255.095267 226.542778,258.406356 L226.553467,258.527222 C226.820689,261.835844 229.602267,264.309911 232.765356,264.0542 L232.913356,264.041867 C233.180578,264.020489 233.437933,263.974444 233.691178,263.915244 L233.765178,263.970333 C234.721422,272.041267 241.609178,277.992511 249.421111,277.360222 L261.867089,276.352178 C269.905956,275.7018 275.871178,268.356889 275.189556,259.948022 L273.9702,244.884089 C273.2894,236.475222 266.220756,230.186044 258.182711,230.836422" id="Fill-128" fill="#FFCCA6"></path>
                    <path d="M237.928911,256.316267 C237.349244,249.1506 235.122667,240.256622 241.041844,234.873533 C244.040489,232.147867 247.570289,231.874067 251.322089,231.569844 C254.377467,231.323178 257.428733,231.019778 260.488222,230.8282 C263.788622,230.621 263.379978,225.357133 260.057378,225.515 C256.707644,225.673689 253.371889,226.056022 250.029556,226.326533 C245.256556,226.712978 240.9292,227.739111 237.296622,231.250822 C233.254578,235.158022 231.552578,240.703089 232.013022,246.383822 C232.291756,249.8314 232.570489,253.278978 232.850044,256.727378 C233.127133,260.153578 238.206822,259.742467 237.928911,256.316267" id="Fill-129" fill="#663E26"></path>
                    <path d="M251.916556,254.193289 C252.001244,255.250667 251.450356,256.1584 250.684867,256.220889 C249.919378,256.282556 249.228711,255.475956 249.144022,254.417756 C249.057689,253.360378 249.6094,252.452644 250.374889,252.390978 C251.140378,252.328489 251.830222,253.135911 251.916556,254.193289" id="Fill-130" fill="#131513"></path>
                    <path d="M267.496844,252.932 C267.582356,253.989378 267.031467,254.897111 266.265978,254.9596 C265.499667,255.021267 264.809822,254.213844 264.724311,253.156467 C264.637978,252.099089 265.189689,251.191356 265.955178,251.129689 C266.721489,251.0672 267.410511,251.874622 267.496844,252.932" id="Fill-131" fill="#131513"></path>
                    <path d="M268.892156,245.970244 C266.8662,243.707489 263.699822,243.831644 262.068533,246.452067 C261.700178,247.044889 262.635867,247.5892 263.0034,246.998022 C264.277844,244.950689 266.576778,245.003311 268.127489,246.735733 C268.592044,247.255378 269.355889,246.488244 268.892156,245.970244" id="Fill-132" fill="#663E26"></path>
                    <path d="M247.437911,248.369489 C248.6918,246.393689 250.9488,246.076311 252.543911,247.886022 C253.005178,248.408956 253.7682,247.641 253.308578,247.120533 C251.248089,244.782956 248.115422,245.282867 246.503867,247.823533 C246.129756,248.413067 247.065444,248.956556 247.437911,248.369489" id="Fill-133" fill="#663E26"></path>
                    <path d="M272.481978,226.509889 C272.481978,226.509889 273.368333,234.556978 257.313622,235.856911 C241.258911,237.156844 235.302733,236.768756 236.494133,251.479956 C236.494133,251.479956 231.558333,230.144933 245.415244,226.996644 C259.272156,223.849178 264.850111,230.297044 272.481978,226.509889" id="Fill-134" fill="#663E26"></path>
                    <path d="M253.838089,265.290822 C257.260178,268.117622 261.936156,267.878356 264.9718,264.6018 C265.3862,264.154511 264.716089,263.481933 264.300867,263.930867 C261.640978,266.802889 257.547956,267.131778 254.5082,264.620711 C254.041178,264.234267 253.366133,264.901911 253.838089,265.290822" id="Fill-135" fill="#D55E35"></path>
                    <polyline id="Fill-136" fill="#87869B" points="450.100889 438.630889 451.8662 431.229244 448.335578 424.727111 450.100889 438.630889"></polyline>
                    <polyline id="Fill-137" fill="#F4EEF2" points="451.868667 431.230889 426.133111 476.477778 416.792667 472.473556 396.985333 463.971778 351.006667 456.802 380.878 407.008222 414.983778 407.008222 414.621178 419.867778 420.344667 408.225111 447.7 419.251111 451.868667 431.230889"></polyline>
                    <polyline id="Fill-138" fill="#BBB4CB" points="451.868667 431.230889 426.133111 476.477778 416.792667 472.473556 447.7 419.251111 451.868667 431.230889"></polyline>
                    <polyline id="Fill-139" fill="#BBB4CB" points="386.217511 460.832533 414.980489 407.011511 417.767822 413.738933 392.357867 463.250689 386.217511 460.832533"></polyline>
                    <path d="M377.262689,371.978267 L364.852067,371.388733 C356.796756,371.005578 349.941067,377.526622 349.540644,385.953578 L349.367978,389.582867 L349.2948,389.642889 C349.045667,389.594378 348.7916,389.5582 348.530956,389.545867 L348.385422,389.538467 C345.213289,389.388 342.514756,391.9558 342.356889,395.273467 L342.351133,395.395156 C342.194089,398.710356 344.634444,401.520711 347.804933,401.671178 L347.954578,401.678578 C348.220978,401.690911 348.481622,401.677756 348.740622,401.652267 L348.807222,401.7164 C348.722533,409.843244 354.793,416.626578 362.621378,416.999044 L375.094489,417.591867 C383.1498,417.975022 390.005489,411.453978 390.405911,403.027022 L391.123711,387.931022 C391.524956,379.503244 385.318822,372.361422 377.262689,371.978267" id="Fill-140" fill="#FFCCA6"></path>
                    <path d="M354.275822,395.326911 C354.617044,388.146444 353.546511,379.041156 360.107022,374.459733 C363.4288,372.139422 366.965178,372.319489 370.724378,372.497911 C373.785511,372.643444 376.851578,372.733889 379.910244,372.935333 C383.209822,373.151578 383.478689,367.878667 380.162667,367.6098 C376.820333,367.338467 373.4632,367.2916 370.113467,367.132089 C365.329778,366.905156 360.907044,367.368889 356.855956,370.386444 C352.346067,373.7444 349.948467,379.026356 349.677956,384.719422 C349.514333,388.1744 349.349889,391.629378 349.186267,395.085178 C349.021822,398.518778 354.113022,398.760511 354.275822,395.326911" id="Fill-141" fill="#663E26"></path>
                    <path d="M392.357867,370.186644 C392.357867,370.186644 392.2074,378.2806 376.118156,377.515933 C360.028911,376.751267 354.1714,375.604267 353.470044,390.347533 C353.470044,390.347533 351.305956,368.556178 365.451467,367.206911 C379.596978,365.857644 384.3042,372.965756 392.357867,370.186644" id="Fill-142" fill="#663E26"></path>
                    <path d="M346.185156,401.101378 C342.815689,391.164822 339.646844,375.977556 349.838289,371.9314 C354.103978,358.402556 372.577667,362.8072 377.069467,364.326667 C381.561267,365.845311 384.379844,363.6434 384.379844,363.6434 C385.835178,365.099556 385.837644,368.000356 385.837644,368.000356 L389.593556,363.571044 C394.115778,366.731667 396.331667,374.391489 389.236711,384.780267 L387.492778,393.508156 L376.912422,405.974689 C374.122622,409.262756 369.959711,411.0626 365.652911,410.844711 L358.603178,410.487867 C352.929844,410.200089 348.010489,406.480356 346.185156,401.101378" id="Fill-143" fill="#663E26"></path>
                    <path d="M390.4758,397.212267 C390.0466,400.544733 386.995333,402.898756 383.662044,402.468733 C380.329578,402.038711 377.975556,398.988267 378.4064,395.654978 C378.8356,392.321689 381.886867,389.967667 385.220156,390.398511 C388.552622,390.827711 390.906644,393.878978 390.4758,397.212267" id="Fill-144" fill="#F1AC78"></path>
                    <path d="M464.8754,487.419089 L464.185556,486.6832 C461.421244,483.731422 456.7872,483.580133 453.836244,486.344444 L449.294289,490.598622 C448.244311,491.582822 446.594111,491.528556 445.609911,490.478578 L445.573733,490.439933 C444.589533,489.389133 442.940156,489.334867 441.889356,490.319067 L432.625378,498.9968 C431.574578,499.981 431.520311,501.6312 432.505333,502.682 L440.0188,510.702778 L448.459733,502.796289 L447.519933,501.793178 L450.568733,500.820489 L464.8754,487.419089" id="Fill-145" fill="#58281F"></path>
                    <path d="M447.187756,491.199667 L418.108222,461.984467 C416.2574,460.1246 413.7414,459.079556 411.117689,459.079556 L369.791978,459.079556 L369.791978,477.651911 L405.469022,477.651911 C406.6892,477.651911 407.860044,478.1362 408.722556,478.999533 L434.055222,504.331378 L447.187756,491.199667" id="Fill-146" fill="#202128"></path>
                    <path d="M388.993333,468.5088 C388.993333,473.536689 384.917578,477.611622 379.888867,477.611622 L358.992089,477.611622 C353.965022,477.611622 349.889267,473.536689 349.889267,468.5088 L349.889267,465.906467 C349.889267,460.8794 353.965022,456.803644 358.992089,456.803644 L379.888867,456.803644 C384.917578,456.803644 388.993333,460.8794 388.993333,465.906467 L388.993333,468.5088" id="Fill-147" fill="#131513"></path>
                    <polyline id="Fill-148" fill="#131513" points="373.171311 473.4446 404.689556 477.612444 372.899156 477.228467 373.171311 473.4446"></polyline>
                    <path d="M345.228911,416.364289 C346.837178,407.072356 383.982711,409.402533 387.072622,419.125311 C391.508511,433.083356 393.079778,468.192244 393.079778,468.192244 C393.079778,468.192244 371.097667,477.612444 347.5706,470.978756 C347.5706,470.978756 344.1074,422.846689 345.228911,416.364289" id="Fill-149" fill="#202128"></path>
                    <path d="M432.5966,413.163378 L420.344667,408.225111 L419.843933,409.243844 C418.887689,408.216067 418.083556,407.019733 417.4858,405.677867 C414.589111,399.177378 417.587756,391.322689 424.043022,388.361044 C425.813267,387.548689 427.641067,387.169644 429.433511,387.169644 C434.435089,387.169644 439.155467,390.122244 441.530044,394.846733 C441.567044,394.919911 441.597467,394.993911 441.621311,395.066267 C441.640222,395.104911 441.657489,395.1452 441.673933,395.186311 C444.275444,401.878378 441.480711,409.610556 434.703956,412.476822 C434.012467,412.769533 433.307822,412.997289 432.5966,413.163378 M429.505867,390.027689 C428.132756,390.027689 426.721822,390.317111 425.331444,390.937889 C420.139111,393.256556 417.827022,399.3928 420.135,404.559644 C421.847689,408.394489 425.691578,410.6704 429.647289,410.669578 C431.337778,410.669578 433.049644,410.254356 434.623378,409.367178 C439.425156,406.660422 440.827867,401.099733 439.014044,396.165578 C437.080178,392.415422 433.450067,390.027689 429.505867,390.027689" id="Fill-153" fill="#898B8D"></path>
                    <path d="M429.634956,413.503778 C425.9514,413.502956 422.365689,411.955533 419.843933,409.243844 L420.344667,408.225111 L432.5966,413.163378 C431.614867,413.392778 430.621622,413.503778 429.634956,413.503778" id="Fill-154" fill="#84828D"></path>
                    <path d="M438.930178,395.942756 C440.8698,400.931178 439.497511,406.619311 434.623378,409.367178 C429.366911,412.329644 422.579467,410.034 420.135,404.559644 C417.827022,399.3928 420.139111,393.256556 425.331444,390.937889 C430.760578,388.513156 436.493933,391.150022 439.074067,396.282333 C439.896289,397.918556 442.351444,396.479667 441.530044,394.846733 C438.304467,388.430111 430.754,385.281822 424.043844,388.361044 C417.587756,391.322689 414.589111,399.177378 417.4858,405.677867 C420.387422,412.191511 428.131111,415.257578 434.703956,412.476822 C441.481533,409.610556 444.275444,401.878378 441.673933,395.186311 C441.016978,393.498289 438.265,394.232533 438.930178,395.942756" id="Fill-155" fill="#4B485C"></path>
                    <path d="M437.781533,395.224956 C439.720333,400.212556 438.348867,405.901511 433.473089,408.649378 C428.217444,411.611844 421.43,409.315378 418.985533,403.841844 C416.678378,398.675 418.990467,392.538756 424.181156,390.220089 C429.611933,387.795356 435.344467,390.432222 437.923778,395.564533 C438.746822,397.200756 441.201978,395.761867 440.3814,394.128933 C437.155,387.712311 429.603711,384.564022 422.893556,387.642422 C416.438289,390.604889 413.440467,398.459578 416.336333,404.960067 C419.238778,411.472889 426.981644,414.538956 433.555311,411.759022 C440.331244,408.892756 443.1268,401.160578 440.523644,394.468511 C439.868333,392.780489 437.116356,393.514733 437.781533,395.224956" id="Fill-156" fill="#6E697E"></path>
                    <path d="M422.989756,411.643911 C421.419311,416.759778 419.848867,421.874822 418.278422,426.990689 C417.739867,428.745311 420.484444,429.495178 421.021356,427.747133 C422.5918,422.631267 424.162244,417.5154 425.732689,412.400356 C426.271244,410.645733 423.526667,409.895867 422.989756,411.643911" id="Fill-157" fill="#6E697E"></path>
                    <path d="M418.061356,430.025511 C418.061356,430.025511 427.7052,431.147022 428.376956,424.4196 C428.376956,424.4196 432.862178,418.253756 428.376956,417.075511 C423.892556,415.897267 418.733933,414.441111 418.061356,417.075511 L413.1864,428.006956 L418.061356,430.025511" id="Fill-158" fill="#F1AC78"></path>
                    <path d="M375.510533,428.210867 C381.878644,434.8314 388.741733,441.585956 396.487067,446.5752 C401.857822,450.035111 407.720267,451.137711 412.835311,446.542311 C416.402933,443.337289 419.145867,438.861933 421.531133,434.722867 C426.413489,426.2474 413.308911,418.597444 408.429844,427.064689 C406.746756,429.986044 404.866333,432.586733 403.126511,434.818244 C402.581378,435.517133 402.566578,435.307467 402.635644,435.397089 C402.376644,435.059156 406.497622,434.807556 406.708933,434.828111 C405.1278,434.672711 406.979444,435.170978 406.127622,434.649689 C404.569511,433.697556 402.541911,432.419 401.462333,431.5828 C396.455822,427.709311 390.966667,422.397756 386.238889,417.482511 C379.4572,410.431956 368.737067,421.168533 375.510533,428.210867" id="Fill-159" fill="#202128"></path>
                    <path d="M342.614244,421.887978 C345.272489,431.901 347.929911,441.914022 350.588156,451.927044 C353.091,461.355467 367.729844,457.356178 365.218778,447.893222 C362.560533,437.8802 359.903111,427.868 357.244867,417.854978 C354.742022,408.426556 340.103178,412.425844 342.614244,421.887978" id="Fill-160" fill="#202128"></path>
                    <path d="M420.732756,392.867644 C421.8148,391.650756 423.067867,390.738911 424.547867,390.060578 C425.245933,389.740733 425.4186,388.731044 425.058467,388.114378 C424.638311,387.3974 423.8128,387.283111 423.112267,387.6046 C421.439867,388.371733 419.943422,389.480911 418.7216,390.856489 C417.508822,392.220556 419.514222,394.239933 420.732756,392.867644" id="Fill-161" fill="#9A97AF"></path>
                    <path d="M535.982822,233.894267 L536.229489,232.915822 C537.216156,228.993822 534.838289,225.015089 530.916289,224.0276 L524.882,222.508133 C523.485867,222.156222 522.6398,220.739533 522.990067,219.3434 L523.003222,219.292422 C523.355133,217.896289 522.507422,216.4796 521.112111,216.127689 L508.802622,213.028733 C507.406489,212.676822 505.9898,213.523711 505.638711,214.919844 L503.6588,222.782756 C503.269889,224.326889 504.207222,225.893222 505.751356,226.282133 L514.170911,228.401822 L514.505556,227.069822 L516.973867,229.108111 L535.982822,233.894267" id="Fill-162" fill="#58281F"></path>
                    <path d="M453.551756,144.893644 C454.406044,144.6996 455.621289,145.290778 457.108689,145.600756 C457.108689,145.600756 461.612,144.498156 460.966556,146.605511 C460.293156,148.803311 458.579644,149.410111 456.843111,149.387911 C458.513867,151.919533 461.213222,154.331111 459.949467,156.131778 C457.546933,159.560444 452.673622,152.732711 452.673622,152.732711 C452.673622,152.732711 453.844467,154.882 455.835889,156.782156 C458.921689,159.728178 453.733467,161.629978 450.817044,158.799889 C451.372044,162.393 447.068533,163.718422 445.912489,155.115511 C445.469311,151.817578 447.303689,149.189756 448.979378,147.315089 C450.118156,146.039822 452.042978,144.9142 453.551756,144.893644" id="Fill-163" fill="#F1AC78"></path>
                    <path d="M529.793956,29.1387333 C531.069222,35.0200889 526.991822,36.7648444 522.712978,36.7648444 C518.434956,36.7648444 514.967644,33.5762667 514.967644,29.6419333 C514.967644,25.7084222 518.434956,22.5198444 522.712978,22.5198444 C526.991822,22.5198444 528.960222,25.2948444 529.793956,29.1387333" id="Fill-164" fill="#EC965D"></path>
                    <path d="M527.3388,23.1907778 C527.3388,25.5316444 525.965689,27.4293333 524.272733,27.4293333 C522.579778,27.4293333 521.206667,25.5316444 521.206667,23.1907778 C521.206667,20.8499111 522.579778,18.9514 524.272733,18.9514 C525.965689,18.9514 527.3388,20.8499111 527.3388,23.1907778" id="Fill-165" fill="#F1AC78"></path>
                    <path d="M518.063311,33.2292889 C514.269578,30.0670222 516.167267,19.5984889 520.909022,18.9834667 C525.652422,18.3684444 524.293289,26.8455556 520.909022,27.2213111 C518.063311,27.5378667 518.696422,23.4275778 518.696422,23.4275778" id="Fill-166" fill="#F1AC78"></path>
                    <path d="M517.049511,22.1942444 C512.240333,23.4958222 514.559822,36.9029778 521.149933,36.7640222 C527.740044,36.6250667 525.706689,24.4158889 519.577844,28.3337778 C519.577844,28.3337778 519.380511,21.5636 517.049511,22.1942444" id="Fill-167" fill="#F1AC78"></path>
                    <path d="M529.969911,25.2126222 C529.280889,27.2213111 527.544356,28.4447778 526.092311,27.9473333 C524.639444,27.4490667 524.019489,25.4173556 524.708511,23.4086667 C525.397533,21.4008 527.133244,20.1765111 528.586111,20.6747778 C530.038978,21.1722222 530.658111,23.2047556 529.969911,25.2126222" id="Fill-168" fill="#F1AC78"></path>
                    <path d="M532.010667,26.4393778 C531.430178,28.1323333 529.967444,29.1642222 528.742333,28.7440667 C527.517222,28.3239111 526.995111,26.6112222 527.5756,24.9182667 C528.156911,23.2253111 529.620467,22.1934222 530.844756,22.6135778 C532.069044,23.0329111 532.591156,24.7464222 532.010667,26.4393778" id="Fill-169" fill="#F1AC78"></path>
                    <polyline id="Fill-170" fill="#FFFFFE" points="526.201667 42.0764 513.205622 37.7515111 515.107422 31.9293556 528.103467 36.2542444 526.201667 42.0764"></polyline>
                    <polyline id="Fill-171" fill="#FFFFFE" points="451.8662 140.132978 441.669 147.012511 445.094378 152.090556 455.291578 145.211022 451.8662 140.132978"></polyline>
                    <path d="M442.041467,150.068711 C441.334356,149.099311 424.865244,126.119022 437.242978,107.559822 C450.080333,88.3132444 484.852933,96.1251778 503.980289,108.882778 L496.100933,117.233267 C474.636,114.739467 477.5072,112.299111 468.173333,111.203911 C463.858311,110.697422 453.4128,110.133378 449.623178,115.816578 C443.116111,125.572244 453.963689,141.160756 454.075511,141.315333 L442.041467,150.068711" id="Fill-172" fill="#202128"></path>
                    <path d="M496.2958,107.508022 L520.954244,36.7508667" id="Stroke-173" stroke="#202128" stroke-width="18.453" fill="#D8D8D8"></path>
                    <path d="M461.047133,240.4482 C461.047133,240.4482 459.360756,246.762044 468.572111,256.164978 C476.912733,264.679089 479.639222,257.965644 479.188644,254.592889 C478.521822,249.603644 475.334067,243.964844 475.523178,242.703556 C475.523178,242.703556 477.050867,240.5296 476.689089,239.080022 C473.689622,227.0838 465.827533,225.705756 461.76,227.814756 C457.028111,230.267444 457.0462,235.646422 461.047133,240.4482" id="Fill-175" fill="#58281F"></path>
                    <path d="M461.555267,159.937022 C461.495244,159.7956 461.481267,159.764356 461.555267,159.937022" id="Fill-176" fill="#202128"></path>
                    <path d="M529.698578,180.560822 C529.374622,176.9044 527.754844,174.322622 525.523333,171.531178 C519.118222,163.516978 510.729089,156.7838 502.797111,150.294 C501.136222,148.518822 498.778911,147.403889 496.156022,147.403889 L470.735378,147.403889 C466.240289,147.403889 462.516444,150.664 461.773978,154.946133 C461.215689,156.664578 461.291333,158.586111 461.8636,160.453378 C461.898133,160.574244 461.935133,160.694289 461.977067,160.811044 C462.081489,161.116089 462.194956,161.419489 462.324867,161.7196 C461.875111,160.684422 461.646533,160.151622 461.555267,159.937022 C461.658044,160.1804 461.894844,160.751844 462.046956,161.168711 C462.473689,162.3338 462.841222,163.519444 463.190667,164.710022 C463.734978,166.569067 464.1872,168.455244 464.597489,170.348822 C464.880333,171.6504 465.121244,172.9602 465.349,174.272467 C465.4748,174.996844 465.584978,175.724511 465.695978,176.452178 C465.717356,176.592778 465.734622,176.706244 465.750244,176.807378 C465.766689,176.951267 465.790533,177.157644 465.828356,177.461867 C467.9612,194.907778 465.842333,212.5058 461.279822,229.397533 C458.596089,239.329978 473.965067,243.539756 476.6414,233.6328 C481.559933,215.426333 483.917244,196.269378 481.758911,177.461867 C481.336289,173.785711 480.790333,170.105444 480.028133,166.4778 L497.427178,166.4778 C502.640889,170.911222 507.727156,175.531289 512.336533,180.542733 C512.754222,180.997422 513.156289,181.464444 513.557533,181.933111 L513.633178,182.021911 C513.671822,182.5728 513.725267,183.288956 513.681689,183.747756 C513.673467,183.832444 513.667711,183.892467 513.661956,183.960711 C513.637289,184.100489 513.603578,184.297822 513.558356,184.588889 C513.425156,185.4366 513.264822,186.281022 513.106956,187.124622 C511.741244,194.432533 509.849311,201.695222 507.683578,208.8058 C504.682467,218.660133 520.061311,222.839489 523.045156,213.041067 C525.298867,205.641067 527.210533,198.093889 528.631333,190.489978 C529.228267,187.296467 529.987178,183.828333 529.698578,180.560822" id="Fill-177" fill="#202128"></path>
                    <path d="M483.033356,95.1985333 C458.1414,95.1985333 461.229667,107.790867 461.229667,107.790867 L461.229667,156.876711 C471.898822,162.3338 497.053889,163.182333 504.633133,153.082978 L504.633133,104.048933 C504.633133,104.048933 507.924489,95.1985333 483.033356,95.1985333" id="Fill-178" fill="#202128"></path>
                    <polyline id="Fill-179" fill="#FFFFFE" points="472.351044 97.8206 488.372044 124.357 494.5938 97.8206 472.351044 97.8206"></polyline>
                    <path d="M495.088778,100.752644 L494.960511,100.705778 C487.491444,97.9628444 479.385978,97.9644889 472.939756,100.709067 L472.836978,100.752644 L477.241622,108.005467 L484.403178,103.114067 L493.3876,108.005467 L495.088778,100.752644" id="Fill-180" fill="#A59A95"></path>
                    <polyline id="Fill-181" fill="#0E0D0C" points="489.636622 118.927867 488.363 124.359467 485.083156 118.927044 483.463378 97.8222444 489.636622 118.927867"></polyline>
                    <path d="M484.813467,105.370244 L484.852111,105.370244 C485.978556,105.370244 486.857511,104.763444 487.012089,103.878733 L487.623822,100.3662 C487.856511,99.0325556 486.386378,97.6948 484.687667,97.6948 L482.114933,97.6948 C480.417044,97.6948 479.445178,99.0325556 480.175311,100.3662 L482.096844,103.878733 C482.581133,104.763444 483.687022,105.370244 484.813467,105.370244" id="Fill-182" fill="#0E0D0C"></path>
                    <path d="M494.5938,97.8206 L494.466356,97.7737333 C486.996467,95.0308 478.891822,95.0324444 472.4456,97.7762 L472.342,97.8206 L476.746644,105.073422 L484.009333,100.723044 L492.893444,105.073422 L494.5938,97.8206" id="Fill-183" fill="#FFFFFE"></path>
                    <polyline id="Fill-184" fill="#2C2C37" points="488.363 124.359467 494.284644 96.1597111 502.843978 99.0424222 498.983644 104.341644 495.998978 105.356267 497.986289 108.856467 488.363 124.359467"></polyline>
                    <polyline id="Fill-185" fill="#2C2C37" points="488.363 124.360289 471.9276 96.1605333 464.369733 98.6584444 470.279044 104.342467 473.641933 105.357089 472.959489 108.857289 488.363 124.360289"></polyline>
                    <path d="M461.605422,84.1355333 C461.605422,84.1355333 446.448578,58.6392444 461.625978,51.7054444 C465.200178,37.9776222 483.873667,41.4424667 488.436178,42.7325333 C492.998689,44.0226 495.7038,41.6800889 495.7038,41.6800889 C497.229844,43.0606 497.379489,45.9581111 497.379489,45.9581111 L500.906822,41.3446222 C505.5828,44.2717333 508.184311,51.8098667 501.6238,62.5448 L461.605422,84.1355333" id="Fill-186" fill="#663E26"></path>
                    <path d="M487.803067,96.0988667 C487.803067,98.5046889 485.852756,100.455822 483.446933,100.455822 L482.357489,100.455822 C479.951667,100.455822 478.001356,98.5046889 478.001356,96.0988667 L478.001356,88.7079111 C478.001356,86.3020889 479.951667,84.3517778 482.357489,84.3517778 L483.446933,84.3517778 C485.852756,84.3517778 487.803067,86.3020889 487.803067,88.7079111 L487.803067,96.0988667" id="Fill-187" fill="#EC965D"></path>
                    <path d="M486.014733,50.7056222 L473.630422,51.7079111 C465.592378,52.3591111 459.627156,59.7032 460.307956,68.1128889 L460.600667,71.7339556 L460.535711,71.8030222 C460.282467,71.7874 460.025933,71.7832889 459.766111,71.8046667 L459.6214,71.8161778 C456.455844,72.0727111 454.107578,74.9644667 454.375622,78.2755556 L454.385489,78.3964222 C454.653533,81.7050444 457.434289,84.1791111 460.597378,83.9234 L460.7462,83.9110667 C461.011778,83.8896889 461.269956,83.8428222 461.5232,83.7844444 L461.596378,83.8395333 C462.552622,91.9104667 469.440378,97.8617111 477.253133,97.2294222 L489.699111,96.2213778 C497.737978,95.571 503.702378,88.2260889 503.021578,79.8172222 L501.802222,64.7532889 C501.121422,56.3436 494.052778,50.0544222 486.014733,50.7056222" id="Fill-188" fill="#FFCCA6"></path>
                    <path d="M465.761756,76.1846444 C465.181267,69.0198 462.955511,60.1258222 468.874689,54.7427333 C471.871689,52.0170667 475.402311,51.7432667 479.154111,51.4390444 C482.209489,51.1915556 485.260756,50.8889778 488.319422,50.6974 C491.620644,50.4902 491.212,45.2263333 487.890222,45.3842 C484.539667,45.5428889 481.203911,45.9252222 477.861578,46.1957333 C473.088578,46.5821778 468.762044,47.6083111 465.128644,51.1192 C461.0866,55.0264 459.3846,60.5722889 459.845044,66.2530222 C460.123778,69.7006 460.402511,73.1481778 460.682067,76.5965778 C460.959978,80.0227778 466.038844,79.6116667 465.761756,76.1846444" id="Fill-189" fill="#663E26"></path>
                    <path d="M479.748578,74.0624889 C479.834089,75.1198667 479.282378,76.0276 478.516889,76.0900889 C477.7514,76.1517556 477.061556,75.3443333 476.975222,74.2869556 C476.890533,73.2295778 477.441422,72.3218444 478.206911,72.2601778 C478.9724,72.1976889 479.662244,73.0051111 479.748578,74.0624889" id="Fill-190" fill="#131513"></path>
                    <path d="M495.328867,72.8012 C495.414378,73.8585778 494.862667,74.7663111 494.098,74.8279778 C493.331689,74.8904667 492.641844,74.0830444 492.556333,73.0256667 C492.470822,71.9682889 493.021711,71.0605556 493.788022,70.9988889 C494.552689,70.9364 495.243356,71.7438222 495.328867,72.8012" id="Fill-191" fill="#131513"></path>
                    <path d="M496.724178,65.8394444 C494.698222,63.5766889 491.531844,63.7008444 489.900556,66.3212667 C489.5322,66.9140889 490.467889,67.4575778 490.835422,66.8672222 C492.109867,64.8198889 494.4088,64.8725111 495.958689,66.6041111 C496.424889,67.1245778 497.187911,66.3566222 496.724178,65.8394444" id="Fill-192" fill="#663E26"></path>
                    <path d="M475.269933,68.2386889 C476.523822,66.2620667 478.780822,65.9455111 480.375933,67.7544 C480.8372,68.2781556 481.5994,67.5102 481.141422,66.9897333 C479.080933,64.6521556 475.946622,65.1520667 474.335889,67.6927333 C473.961778,68.2822667 474.897467,68.8257556 475.269933,68.2386889" id="Fill-193" fill="#663E26"></path>
                    <path d="M500.314822,46.3782667 C500.314822,46.3782667 501.200356,54.4261778 485.145644,55.7261111 C469.090933,57.0252222 463.133933,56.6379556 464.326156,71.3491556 C464.326156,71.3491556 459.391178,50.0141333 473.247267,46.8658444 C487.104178,43.7175556 492.682133,50.1654222 500.314822,46.3782667" id="Fill-194" fill="#663E26"></path>
                    <path d="M479.619489,83.4308889 C479.945911,87.4523778 483.469956,90.4485556 487.492267,90.1229556 C491.512933,89.7973556 494.509933,86.2733111 494.183511,82.2518222 L479.619489,83.4308889" id="Fill-195" fill="#FFFFFE"></path>
                    <path d="M486.018844,10.2621556 C486.018844,7.73382222 486.018844,5.20548889 486.018844,2.67633333 C486.018844,0.0312444444 481.907733,0.0271333333 481.907733,2.67633333 C481.907733,5.20548889 481.907733,7.73382222 481.907733,10.2621556 C481.907733,12.9072444 486.018844,12.9121778 486.018844,10.2621556" id="Fill-196" fill="#FADA56"></path>
                    <path d="M486.018844,29.2908444 C486.018844,28.5820889 486.018844,27.8733333 486.018844,27.1637556 C486.018844,26.0891111 485.072467,25.0588667 483.963289,25.1082 C482.849178,25.1583556 481.907733,26.0118222 481.907733,27.1637556 C481.907733,27.8733333 481.907733,28.5820889 481.907733,29.2908444 C481.907733,30.3663111 482.852467,31.3965556 483.963289,31.3464 C485.076578,31.2970667 486.018844,30.4436 486.018844,29.2908444" id="Fill-197" fill="#FADA56"></path>
                    <path d="M550.482711,39.7914444 C553.1278,39.7914444 553.132733,35.6803333 550.482711,35.6803333 C547.8368,35.6803333 547.832689,39.7914444 550.482711,39.7914444" id="Fill-198" fill="#FADA56"></path>
                    <path d="M538.965022,51.3074889 C541.610933,51.3074889 541.615044,47.1963778 538.965022,47.1963778 C536.319933,47.1963778 536.315,51.3074889 538.965022,51.3074889" id="Fill-199" fill="#FADA56"></path>
                    <path d="M533.822022,57.3031333 C536.020644,55.1036889 538.220089,52.9050667 540.419533,50.7056222 C542.291733,48.8326 539.386,45.9252222 537.511333,47.7990667 C535.313533,49.9976889 533.114089,52.1971333 530.914644,54.3957556 C529.041622,56.2687778 531.948178,59.1769778 533.822022,57.3031333" id="Fill-200" fill="#FADA56"></path>
                    <path d="M415.990178,39.5431333 C418.378733,41.9325111 420.768111,44.3210667 423.156667,46.7104444 C425.030511,48.5834667 427.937889,45.6769111 426.064867,43.8030667 C423.674667,41.4145111 421.286111,39.0251333 418.896733,36.6357556 C417.023711,34.7627333 414.115511,37.6692889 415.990178,39.5431333" id="Fill-201" fill="#FADA56"></path>
                    <path d="M573.916867,107.850067 C575.918978,107.850067 577.922733,107.850067 579.924844,107.850067 C582.569933,107.850067 582.574867,103.738956 579.924844,103.738956 C577.922733,103.738956 575.918978,103.738956 573.916867,103.738956 C571.271778,103.738956 571.266844,107.850067 573.916867,107.850067" id="Fill-202" fill="#FADA56"></path>
                    <path d="M573.916867,107.850067 C576.562778,107.850067 576.566067,103.738956 573.916867,103.738956 C571.271778,103.738956 571.266844,107.850067 573.916867,107.850067" id="Fill-203" fill="#FADA56"></path>
                    <path d="M554.695778,107.850067 C557.340867,107.850067 557.3458,103.738956 554.695778,103.738956 C552.049867,103.738956 552.045756,107.850067 554.695778,107.850067" id="Fill-204" fill="#FADA56"></path>
                    <path d="M542.432333,107.850067 C546.520422,107.850067 550.607689,107.850067 554.695778,107.850067 C557.340867,107.850067 557.3458,103.738956 554.695778,103.738956 C550.607689,103.738956 546.520422,103.738956 542.432333,103.738956 C539.787244,103.738956 539.782311,107.850067 542.432333,107.850067" id="Fill-205" fill="#FADA56"></path>
                    <path d="M520.111467,143.888067 C523.7128,147.4894 527.314133,151.089911 530.914644,154.691244 C532.787667,156.564267 535.695044,153.657711 533.822022,151.783867 C530.220689,148.183356 526.619356,144.582022 523.018844,140.981511 C521.145822,139.108489 518.238444,142.014222 520.111467,143.888067" id="Fill-206" fill="#FADA56"></path>
                    <path d="M391.490422,103.738956 C387.906356,103.738956 384.323111,103.738956 380.740689,103.738956 C378.094778,103.738956 378.090667,107.850067 380.740689,107.850067 C384.323111,107.850067 387.906356,107.850067 391.490422,107.850067 C394.135511,107.850067 394.1388,103.738956 391.490422,103.738956" id="Fill-207" fill="#FADA56"></path>
                    <path d="M425.037089,161.813333 C422.022,164.828422 419.006089,167.844333 415.990178,170.860244 C414.116333,172.733267 417.022889,175.641467 418.896733,173.767622 C421.912644,170.751711 424.928556,167.7358 427.944467,164.719889 C429.817489,162.846867 426.910933,159.938667 425.037089,161.813333" id="Fill-208" fill="#FADA56"></path>
                    <path d="M410.461556,103.738956 C409.6196,103.738956 408.776822,103.738956 407.934867,103.738956 C406.858578,103.738956 405.829156,104.683689 405.879311,105.794511 C405.928644,106.9078 406.781289,107.850067 407.934867,107.850067 C408.776822,107.850067 409.6196,107.850067 410.461556,107.850067 C411.537022,107.850067 412.567267,106.904511 412.517111,105.794511 C412.466956,104.6804 411.614311,103.738956 410.461556,103.738956" id="Fill-209" fill="#FADA56"></path>
                    <path d="M538.5646,655.656444 L473.493111,655.656444 C468.289267,655.656444 464.070444,651.437622 464.070444,646.233778 L464.070444,284.161644 C464.070444,278.9578 468.289267,274.738978 473.493111,274.738978 L538.5646,274.738978 C543.768444,274.738978 547.987267,278.9578 547.987267,284.161644 L547.987267,646.233778 C547.987267,651.437622 543.768444,655.656444 538.5646,655.656444" id="Fill-210" fill="#9BA23B"></path>
                    <path d="M525.009444,655.656444 L459.9396,655.656444 C454.734933,655.656444 450.516111,651.437622 450.516111,646.233778 L450.516111,284.161644 C450.516111,278.9578 454.734933,274.738978 459.9396,274.738978 L525.009444,274.738978 C530.214111,274.738978 534.432933,278.9578 534.432933,284.161644 L534.432933,646.233778 C534.432933,651.437622 530.214111,655.656444 525.009444,655.656444" id="Fill-211" fill="#B7C937"></path>
                </g>
            </g>
        </g>
    </g>
</svg>