<?xml version="1.0" encoding="UTF-8"?>
<svg width="38px" height="38px" viewBox="0 0 38 38" version="1.1" xmlns="http://www.w3.org/2000/svg" xmlns:xlink="http://www.w3.org/1999/xlink">
    <!-- Generator: Sketch 47.1 (45422) - http://www.bohemiancoding.com/sketch -->
    <title>power-button-off</title>
    <desc>Created with Sketch.</desc>
    <defs>
        <filter x="-14.8%" y="-35.4%" width="129.7%" height="179.2%" filterUnits="objectBoundingBox" id="filter-1">
            <feOffset dx="0" dy="2" in="SourceAlpha" result="shadowOffsetOuter1"></feOffset>
            <feGaussianBlur stdDeviation="6" in="shadowOffsetOuter1" result="shadowBlurOuter1"></feGaussianBlur>
            <feColorMatrix values="0 0 0 0 0   0 0 0 0 0   0 0 0 0 0  0 0 0 0.207710598 0" type="matrix" in="shadowBlurOuter1" result="shadowMatrixOuter1"></feColorMatrix>
            <feMerge>
                <feMergeNode in="shadowMatrixOuter1"></feMergeNode>
                <feMergeNode in="SourceGraphic"></feMergeNode>
            </feMerge>
        </filter>
    </defs>
    <g id="Page-1" stroke="none" stroke-width="1" fill="none" fill-rule="evenodd">
        <g id="Desktop-1440-+_Main" transform="translate(-1197.000000, -24.000000)" fill="#F2F2F2">
            <g id="Header">
                <g id="login" filter="url(#filter-1)" transform="translate(1192.000000, 16.000000)">
                    <g id="power-button-off" transform="translate(17.000000, 17.000000)">
                        <g>
                            <path d="M6.93887129,8.11169725 C7.25172277,8.11169725 7.5229901,7.99775229 7.75156436,7.77082569 C7.98055446,7.54348624 8.09532673,7.27417431 8.09532673,6.96344037 L8.09532673,1.22284404 C8.09532673,0.911559633 7.98055446,0.642798165 7.75156436,0.415458716 C7.5229901,0.188119266 7.25172277,0.074587156 6.93887129,0.074587156 C6.62532673,0.074587156 6.35461386,0.188669725 6.12548515,0.415458716 C5.89649505,0.642798165 5.78227723,0.912110092 5.78227723,1.22284404 L5.78227723,6.96344037 C5.78227723,7.27417431 5.89649505,7.54348624 6.12548515,7.77082569 C6.35461386,7.99775229 6.62532673,8.11169725 6.93887129,8.11169725 Z" id="Fill-1"></path>
                            <path d="M13.1498812,5.03463303 C12.6652871,4.07188073 11.9830297,3.26504587 11.1036634,2.61302752 C10.8508317,2.4216055 10.5650099,2.34688073 10.245505,2.38885321 C9.926,2.43068807 9.67316832,2.58013761 9.48645545,2.83720183 C9.29364356,3.08821101 9.2200396,3.37100917 9.26550495,3.68490826 C9.31041584,3.99880734 9.45928713,4.25146789 9.71267327,4.44288991 C10.3023366,4.88518349 10.7593465,5.42655963 11.0809307,6.06619266 C11.4032079,6.7059633 11.5645545,7.38811927 11.5645545,8.11114679 C11.5645545,8.73357798 11.4421584,9.32655963 11.1984752,9.89201835 C10.9547921,10.4570642 10.6250297,10.9455963 10.2091881,11.3584404 C9.79334653,11.7708716 9.30126733,12.0981193 8.73211881,12.3405963 C8.16310891,12.5825229 7.56526733,12.7040367 6.93887129,12.7040367 C6.31233663,12.7040367 5.71463366,12.5825229 5.14548515,12.3405963 C4.57592079,12.0981193 4.08370297,11.7708716 3.66841584,11.3584404 C3.25257426,10.9455963 2.92281188,10.4570642 2.67912871,9.89201835 C2.43489109,9.32655963 2.31318812,8.73357798 2.31318812,8.11114679 C2.31318812,7.38811927 2.4739802,6.70651376 2.79611881,6.06619266 C3.11881188,5.42655963 3.57471287,4.88518349 4.16493069,4.44288991 C4.41776238,4.25146789 4.56718812,3.99880734 4.61209901,3.68490826 C4.65770297,3.37100917 4.58340594,3.08821101 4.39073267,2.83720183 C4.20443564,2.58013761 3.95271287,2.43068807 3.63639604,2.38885321 C3.32021782,2.34688073 3.03273267,2.4216055 2.77394059,2.61302752 C1.8940198,3.26504587 1.21231683,4.07188073 0.727168317,5.03463303 C0.242574257,5.99738532 0,7.02316514 0,8.11114679 C0,9.04431193 0.183524752,9.93509174 0.551267327,10.7844495 C0.918871287,11.6332569 1.41261386,12.3659174 2.03263366,12.9818807 C2.65320792,13.5974312 3.39118812,14.0881651 4.24615842,14.4527064 C5.10168317,14.8176606 5.99879208,14.9998624 6.93887129,14.9998624 C7.87825743,14.9998624 8.77550495,14.8176606 9.63089109,14.4527064 C10.4864158,14.0881651 11.2239802,13.5974312 11.8444158,12.9818807 C12.4649901,12.3659174 12.9587327,11.6332569 13.3259208,10.7844495 C13.6935248,9.93509174 13.8770495,9.04431193 13.8770495,8.11114679 C13.8770495,7.02316514 13.6350297,5.99738532 13.1498812,5.03463303 Z" id="Fill-2"></path>
                        </g>
                    </g>
                </g>
            </g>
        </g>
    </g>
</svg>